<svg width="24" height="24" viewBox="0 0 24 24" fill="none" xmlns="http://www.w3.org/2000/svg">
<path d="M11.9999 22.0001C10.8181 22.0001 9.64773 21.7673 8.5558 21.315C7.46387 20.8627 6.47171 20.1998 5.63599 19.364C4.80026 18.5283 4.13732 17.5362 3.68503 16.4442C3.23274 15.3523 2.99995 14.182 2.99995 13.0001C2.99995 11.8182 3.23274 10.6479 3.68503 9.55592C4.13732 8.46399 4.80026 7.47184 5.63599 6.63611C6.47171 5.80038 7.46387 5.13745 8.5558 4.68515C9.64773 4.23286 10.8181 4.00007 11.9999 4.00007C14.3869 4.00007 16.6761 4.94828 18.3639 6.63611C20.0517 8.32394 20.9999 10.6131 20.9999 13.0001C20.9999 15.387 20.0517 17.6762 18.3639 19.364C16.6761 21.0519 14.3869 22.0001 11.9999 22.0001ZM12.9999 13.0001V8.00007H10.9999V15.0001H15.9999V13.0001H12.9999ZM1.74695 6.28207L5.28195 2.74707L6.69695 4.16107L3.15995 7.69707L1.74695 6.28207ZM18.7169 2.74707L22.2529 6.28207L20.8389 7.69707L17.3029 4.16107L18.7179 2.74707H18.7169Z" fill="#232634"/>
</svg>
