<svg width="78" height="26" viewBox="0 0 78 26" fill="none" xmlns="http://www.w3.org/2000/svg">
<path d="M3.56818 19.1761C3.01515 19.1761 2.51705 19.0777 2.07386 18.8807C1.63447 18.6799 1.28598 18.3845 1.02841 17.9943C0.774621 17.6042 0.647727 17.1231 0.647727 16.5511C0.647727 16.0587 0.738636 15.6515 0.920455 15.3295C1.10227 15.0076 1.35038 14.75 1.66477 14.5568C1.97917 14.3636 2.33333 14.2178 2.72727 14.1193C3.125 14.017 3.53598 13.9432 3.96023 13.8977C4.47159 13.8447 4.88636 13.7973 5.20455 13.7557C5.52273 13.7102 5.75379 13.642 5.89773 13.5511C6.04545 13.4564 6.11932 13.3106 6.11932 13.1136V13.0795C6.11932 12.6515 5.99242 12.3201 5.73864 12.0852C5.48485 11.8504 5.11932 11.733 4.64205 11.733C4.13826 11.733 3.73864 11.8428 3.44318 12.0625C3.15152 12.2822 2.95455 12.5417 2.85227 12.8409L0.931818 12.5682C1.08333 12.0379 1.33333 11.5947 1.68182 11.2386C2.0303 10.8788 2.45644 10.6098 2.96023 10.4318C3.46402 10.25 4.02083 10.1591 4.63068 10.1591C5.05114 10.1591 5.4697 10.2083 5.88636 10.3068C6.30303 10.4053 6.68371 10.5682 7.02841 10.7955C7.37311 11.0189 7.64962 11.3239 7.85795 11.7102C8.07008 12.0966 8.17614 12.5795 8.17614 13.1591V19H6.19886V17.8011H6.13068C6.00568 18.0436 5.82955 18.2708 5.60227 18.483C5.37879 18.6913 5.09659 18.8598 4.75568 18.9886C4.41856 19.1136 4.02273 19.1761 3.56818 19.1761ZM4.10227 17.6648C4.51515 17.6648 4.87311 17.5833 5.17614 17.4205C5.47917 17.2538 5.71212 17.0341 5.875 16.7614C6.04167 16.4886 6.125 16.1913 6.125 15.8693V14.8409C6.06061 14.8939 5.95076 14.9432 5.79545 14.9886C5.64394 15.0341 5.47348 15.0739 5.28409 15.108C5.0947 15.142 4.9072 15.1723 4.72159 15.1989C4.53598 15.2254 4.375 15.2481 4.23864 15.267C3.93182 15.3087 3.6572 15.3769 3.41477 15.4716C3.17235 15.5663 2.98106 15.6989 2.84091 15.8693C2.70076 16.036 2.63068 16.2519 2.63068 16.517C2.63068 16.8958 2.76894 17.1818 3.04545 17.375C3.32197 17.5682 3.67424 17.6648 4.10227 17.6648ZM12.1211 7.36364V19H10.0643V7.36364H12.1211ZM14.0562 19V10.2727H16.113V19H14.0562ZM15.0903 9.03409C14.7645 9.03409 14.4842 8.92614 14.2494 8.71023C14.0145 8.49053 13.8971 8.22727 13.8971 7.92045C13.8971 7.60985 14.0145 7.34659 14.2494 7.13068C14.4842 6.91098 14.7645 6.80114 15.0903 6.80114C15.4198 6.80114 15.7001 6.91098 15.9312 7.13068C16.166 7.34659 16.2835 7.60985 16.2835 7.92045C16.2835 8.22727 16.166 8.49053 15.9312 8.71023C15.7001 8.92614 15.4198 9.03409 15.0903 9.03409ZM21.8435 22.4545C21.1049 22.4545 20.4704 22.3542 19.9401 22.1534C19.4098 21.9564 18.9837 21.6913 18.6617 21.358C18.3397 21.0246 18.1162 20.6553 17.9912 20.25L19.8435 19.8011C19.9269 19.9716 20.0481 20.1402 20.2072 20.3068C20.3662 20.4773 20.5803 20.6174 20.8492 20.7273C21.1219 20.8409 21.4647 20.8977 21.8776 20.8977C22.4609 20.8977 22.9439 20.7557 23.3265 20.4716C23.7091 20.1913 23.9003 19.7292 23.9003 19.0852V17.4318H23.7981C23.692 17.6439 23.5367 17.8617 23.3322 18.0852C23.1314 18.3087 22.8644 18.4962 22.531 18.6477C22.2015 18.7992 21.7867 18.875 21.2867 18.875C20.6162 18.875 20.0083 18.7178 19.4628 18.4034C18.9212 18.0852 18.4894 17.6117 18.1674 16.983C17.8492 16.3504 17.6901 15.5587 17.6901 14.608C17.6901 13.6496 17.8492 12.8409 18.1674 12.1818C18.4894 11.5189 18.9231 11.017 19.4685 10.6761C20.014 10.3314 20.6219 10.1591 21.2924 10.1591C21.8037 10.1591 22.2242 10.2462 22.5537 10.4205C22.8871 10.5909 23.1522 10.7973 23.3492 11.0398C23.5462 11.2784 23.6958 11.5038 23.7981 11.7159H23.9117V10.2727H25.9401V19.142C25.9401 19.8883 25.7621 20.5057 25.406 20.9943C25.05 21.483 24.5632 21.8485 23.9458 22.0909C23.3284 22.3333 22.6276 22.4545 21.8435 22.4545ZM21.8606 17.2614C22.2962 17.2614 22.6674 17.1553 22.9742 16.9432C23.281 16.7311 23.514 16.4261 23.6731 16.0284C23.8322 15.6307 23.9117 15.1534 23.9117 14.5966C23.9117 14.0473 23.8322 13.5663 23.6731 13.1534C23.5178 12.7405 23.2867 12.4205 22.9799 12.1932C22.6769 11.9621 22.3037 11.8466 21.8606 11.8466C21.4022 11.8466 21.0197 11.9659 20.7128 12.2045C20.406 12.4432 20.175 12.7708 20.0197 13.1875C19.8644 13.6004 19.7867 14.0701 19.7867 14.5966C19.7867 15.1307 19.8644 15.5985 20.0197 16C20.1787 16.3977 20.4117 16.7083 20.7185 16.9318C21.0291 17.1515 21.4098 17.2614 21.8606 17.2614ZM29.9249 13.8864V19H27.8681V10.2727H29.834V11.7557H29.9363C30.137 11.267 30.4571 10.8788 30.8965 10.5909C31.3397 10.303 31.887 10.1591 32.5385 10.1591C33.1408 10.1591 33.6654 10.2879 34.1124 10.5455C34.5631 10.803 34.9116 11.1761 35.1578 11.6648C35.4078 12.1534 35.5309 12.7462 35.5272 13.4432V19H33.4703V13.7614C33.4703 13.178 33.3188 12.7216 33.0158 12.392C32.7166 12.0625 32.3018 11.8977 31.7715 11.8977C31.4116 11.8977 31.0916 11.9773 30.8113 12.1364C30.5347 12.2917 30.3169 12.517 30.1578 12.8125C30.0025 13.108 29.9249 13.4659 29.9249 13.8864ZM43.8869 19V20.642H36.3699V19H43.8869ZM46.2893 10.2727H48.3461V19.5C48.3461 20.1288 48.2268 20.6477 47.9882 21.0568C47.7495 21.4659 47.4048 21.7708 46.9541 21.9716C46.5033 22.1723 45.956 22.2727 45.312 22.2727C45.2363 22.2727 45.1662 22.2708 45.1018 22.267C45.0374 22.267 44.9673 22.2652 44.8916 22.2614V20.5852C44.9484 20.589 44.9995 20.5909 45.045 20.5909C45.0905 20.5947 45.1378 20.5966 45.187 20.5966C45.581 20.5966 45.8632 20.5 46.0336 20.3068C46.2041 20.1174 46.2893 19.839 46.2893 19.4716V10.2727ZM47.312 9.03409C46.9825 9.03409 46.7003 8.92614 46.4655 8.71023C46.2344 8.49053 46.1189 8.22727 46.1189 7.92045C46.1189 7.60985 46.2344 7.34659 46.4655 7.13068C46.7003 6.91098 46.9825 6.80114 47.312 6.80114C47.6378 6.80114 47.9162 6.91098 48.1473 7.13068C48.3821 7.34659 48.4995 7.60985 48.4995 7.92045C48.4995 8.22727 48.3821 8.49053 48.1473 8.71023C47.9162 8.92614 47.6378 9.03409 47.312 9.03409ZM55.8437 15.3295V10.2727H57.9005V19H55.9062V17.4489H55.8153C55.6183 17.9375 55.2945 18.3371 54.8437 18.6477C54.3967 18.9583 53.8456 19.1136 53.1903 19.1136C52.6183 19.1136 52.1126 18.9867 51.6732 18.733C51.2376 18.4754 50.8967 18.1023 50.6505 17.6136C50.4043 17.1212 50.2812 16.5265 50.2812 15.8295V10.2727H52.338V15.5114C52.338 16.0644 52.4895 16.5038 52.7926 16.8295C53.0956 17.1553 53.4933 17.3182 53.9857 17.3182C54.2888 17.3182 54.5823 17.2443 54.8664 17.0966C55.1505 16.9489 55.3835 16.7292 55.5653 16.4375C55.7509 16.142 55.8437 15.7727 55.8437 15.3295ZM66.7333 12.5795L64.8583 12.7841C64.8053 12.5947 64.7125 12.4167 64.5799 12.25C64.4511 12.0833 64.2769 11.9489 64.0572 11.8466C63.8375 11.7443 63.5685 11.6932 63.2503 11.6932C62.8223 11.6932 62.4625 11.786 62.1708 11.9716C61.8829 12.1572 61.7409 12.3977 61.7447 12.6932C61.7409 12.947 61.8337 13.1534 62.0231 13.3125C62.2163 13.4716 62.5344 13.6023 62.9776 13.7045L64.4663 14.0227C65.292 14.2008 65.9056 14.483 66.3072 14.8693C66.7125 15.2557 66.917 15.7614 66.9208 16.3864C66.917 16.9356 66.756 17.4205 66.4378 17.8409C66.1234 18.2576 65.6859 18.5833 65.1253 18.8182C64.5647 19.053 63.9208 19.1705 63.1935 19.1705C62.1253 19.1705 61.2655 18.947 60.614 18.5C59.9625 18.0492 59.5742 17.4223 59.4492 16.6193L61.4549 16.4261C61.5458 16.8201 61.739 17.1174 62.0344 17.3182C62.3299 17.5189 62.7144 17.6193 63.1878 17.6193C63.6765 17.6193 64.0685 17.5189 64.364 17.3182C64.6632 17.1174 64.8128 16.8693 64.8128 16.5739C64.8128 16.3239 64.7163 16.1174 64.5231 15.9545C64.3337 15.7917 64.0382 15.6667 63.6367 15.5795L62.1481 15.267C61.3109 15.0928 60.6916 14.7992 60.2901 14.3864C59.8886 13.9697 59.6897 13.4432 59.6935 12.8068C59.6897 12.2689 59.8356 11.803 60.131 11.4091C60.4303 11.0114 60.845 10.7045 61.3753 10.4886C61.9094 10.2689 62.525 10.1591 63.2219 10.1591C64.2447 10.1591 65.0496 10.3769 65.6367 10.8125C66.2276 11.2481 66.5931 11.8371 66.7333 12.5795ZM72.7948 10.2727V11.8636H67.7777V10.2727H72.7948ZM69.0164 8.18182H71.0732V16.375C71.0732 16.6515 71.1148 16.8636 71.1982 17.0114C71.2853 17.1553 71.3989 17.2538 71.5391 17.3068C71.6792 17.3598 71.8345 17.3864 72.005 17.3864C72.1338 17.3864 72.2512 17.3769 72.3573 17.358C72.4671 17.339 72.5505 17.322 72.6073 17.3068L72.9539 18.9148C72.844 18.9527 72.6868 18.9943 72.4823 19.0398C72.2815 19.0852 72.0353 19.1117 71.7436 19.1193C71.2285 19.1345 70.7645 19.0568 70.3516 18.8864C69.9387 18.7121 69.6111 18.4432 69.3686 18.0795C69.13 17.7159 69.0126 17.2614 69.0164 16.7159V8.18182ZM74.3349 19V10.2727H76.3918V19H74.3349ZM75.369 9.03409C75.0433 9.03409 74.763 8.92614 74.5281 8.71023C74.2933 8.49053 74.1758 8.22727 74.1758 7.92045C74.1758 7.60985 74.2933 7.34659 74.5281 7.13068C74.763 6.91098 75.0433 6.80114 75.369 6.80114C75.6986 6.80114 75.9789 6.91098 76.2099 7.13068C76.4448 7.34659 76.5622 7.60985 76.5622 7.92045C76.5622 8.22727 76.4448 8.49053 76.2099 8.71023C75.9789 8.92614 75.6986 9.03409 75.369 9.03409Z" fill="#232634"/>
</svg>
