<svg width="24" height="24" viewBox="0 0 24 24" fill="none" xmlns="http://www.w3.org/2000/svg">
<path d="M13.414 5.99984L15.243 7.82784L13.828 9.24284L9.586 4.99984L13.828 0.756836L15.243 2.17184L13.414 3.99984H16C17.3261 3.99984 18.5979 4.52662 19.5355 5.4643C20.4732 6.40198 21 7.67375 21 8.99984V12.9998H19V8.99984C19 8.20419 18.6839 7.44112 18.1213 6.87852C17.5587 6.31591 16.7956 5.99984 16 5.99984H13.414ZM15 10.9998V20.9998C15 21.2651 14.8946 21.5194 14.7071 21.7069C14.5196 21.8945 14.2652 21.9998 14 21.9998H4C3.73478 21.9998 3.48043 21.8945 3.29289 21.7069C3.10536 21.5194 3 21.2651 3 20.9998V10.9998C3 10.7346 3.10536 10.4803 3.29289 10.2927C3.48043 10.1052 3.73478 9.99984 4 9.99984H14C14.2652 9.99984 14.5196 10.1052 14.7071 10.2927C14.8946 10.4803 15 10.7346 15 10.9998ZM13 11.9998H5V19.9998H13V11.9998Z" fill="#232634"/>
</svg>
