<svg width="24" height="24" viewBox="0 0 24 24" fill="none" xmlns="http://www.w3.org/2000/svg">
<path d="M11 9H21C21.2652 9 21.5195 9.10536 21.7071 9.29289C21.8946 9.48043 22 9.73478 22 10V20C22 20.2652 21.8946 20.5196 21.7071 20.7071C21.5195 20.8946 21.2652 21 21 21H11C10.7347 21 10.4804 20.8946 10.2929 20.7071C10.1053 20.5196 9.99996 20.2652 9.99996 20V10C9.99996 9.73478 10.1053 9.48043 10.2929 9.29289C10.4804 9.10536 10.7347 9 11 9ZM12 11V19H20V11H12ZM5.99996 10.586L7.82796 8.757L9.24296 10.172L4.99996 14.414L0.756958 10.172L2.17196 8.757L3.99996 10.586V8C3.99996 6.67392 4.52674 5.40215 5.46442 4.46447C6.40211 3.52678 7.67388 3 8.99996 3H13V5H8.99996C8.20431 5 7.44125 5.31607 6.87864 5.87868C6.31603 6.44129 5.99996 7.20435 5.99996 8V10.586Z" fill="#232634"/>
</svg>
