<svg width="24" height="24" viewBox="0 0 24 24" fill="none" xmlns="http://www.w3.org/2000/svg">
<path d="M5.828 6.9998L8.364 9.5358L6.95 10.9498L2 5.9998L6.95 1.0498L8.364 2.4638L5.828 4.9998H13C15.1217 4.9998 17.1566 5.84266 18.6569 7.34295C20.1571 8.84324 21 10.8781 21 12.9998C21 15.1215 20.1571 17.1564 18.6569 18.6567C17.1566 20.157 15.1217 20.9998 13 20.9998H4V18.9998H13C14.5913 18.9998 16.1174 18.3677 17.2426 17.2424C18.3679 16.1172 19 14.5911 19 12.9998C19 11.4085 18.3679 9.88238 17.2426 8.75716C16.1174 7.63195 14.5913 6.9998 13 6.9998H5.828Z" fill="#232634"/>
</svg>
