<svg width="24" height="24" viewBox="0 0 24 24" fill="none" xmlns="http://www.w3.org/2000/svg">
<path d="M14.8278 7.75689L9.1718 13.4139C9.07629 13.5061 9.00011 13.6165 8.9477 13.7385C8.89529 13.8605 8.8677 13.9917 8.86655 14.1245C8.86539 14.2573 8.8907 14.3889 8.94098 14.5118C8.99126 14.6347 9.06551 14.7464 9.1594 14.8403C9.2533 14.9342 9.36495 15.0084 9.48784 15.0587C9.61074 15.109 9.74242 15.1343 9.8752 15.1331C10.008 15.132 10.1392 15.1044 10.2612 15.052C10.3832 14.9996 10.4936 14.9234 10.5858 14.8279L16.2428 9.17189C16.8055 8.60923 17.1216 7.8461 17.1216 7.05039C17.1216 6.25467 16.8055 5.49154 16.2428 4.92889C15.6801 4.36623 14.917 4.05013 14.1213 4.05013C13.3256 4.05013 12.5625 4.36623 11.9998 4.92889L6.3428 10.5859C5.86887 11.048 5.49143 11.5996 5.23236 12.2088C4.97328 12.8179 4.83774 13.4724 4.8336 14.1344C4.82945 14.7963 4.95678 15.4525 5.2082 16.0648C5.45961 16.6771 5.83012 17.2334 6.29821 17.7015C6.76631 18.1695 7.32268 18.5399 7.93505 18.7913C8.54742 19.0426 9.20361 19.1698 9.86553 19.1656C10.5275 19.1614 11.182 19.0257 11.7911 18.7666C12.4002 18.5074 12.9517 18.1299 13.4138 17.6559L19.0708 11.9999L20.4848 13.4139L14.8278 19.0709C14.1778 19.7209 13.406 20.2366 12.5567 20.5884C11.7074 20.9402 10.7971 21.1212 9.8778 21.1212C8.9585 21.1212 8.0482 20.9402 7.19888 20.5884C6.34956 20.2366 5.57784 19.7209 4.9278 19.0709C4.27776 18.4208 3.76211 17.6491 3.41031 16.7998C3.05851 15.9505 2.87744 15.0402 2.87744 14.1209C2.87744 13.2016 3.05851 12.2913 3.41031 11.442C3.76211 10.5926 4.27776 9.82093 4.9278 9.17089L10.5858 3.51489C11.5288 2.6041 12.7918 2.10013 14.1028 2.11152C15.4138 2.12291 16.6679 2.64875 17.5949 3.57579C18.5219 4.50284 19.0478 5.7569 19.0592 7.06788C19.0706 8.37887 18.5666 9.64188 17.6558 10.5849L11.9998 16.2439C11.7211 16.5225 11.3903 16.7435 11.0263 16.8942C10.6622 17.045 10.272 17.1225 9.87794 17.1225C9.4839 17.1224 9.09372 17.0448 8.72969 16.894C8.36566 16.7431 8.0349 16.5221 7.7563 16.2434C7.4777 15.9647 7.25671 15.6339 7.10596 15.2698C6.95521 14.9058 6.87765 14.5156 6.87769 14.1215C6.87774 13.7275 6.9554 13.3373 7.10623 12.9733C7.25707 12.6092 7.47813 12.2785 7.7568 11.9999L13.4138 6.34289L14.8278 7.75689Z" fill="#232634"/>
</svg>
