<svg width="24" height="24" viewBox="0 0 24 24" fill="none" xmlns="http://www.w3.org/2000/svg">
<path d="M18.5861 20.0001H4.00007C3.90721 20.0001 3.81619 19.9742 3.7372 19.9254C3.65821 19.8766 3.59438 19.8067 3.55285 19.7237C3.51133 19.6406 3.49375 19.5476 3.50209 19.4552C3.51043 19.3627 3.54435 19.2744 3.60007 19.2001L4.00007 18.6671V10.0001C4.00007 8.67007 4.32407 7.41607 4.89907 6.31307L1.39307 2.80807L2.80807 1.39307L22.6071 21.1931L21.1921 22.6071L18.5861 20.0001ZM6.40807 7.82207C6.13768 8.51634 5.99931 9.255 6.00007 10.0001V18.0001H16.5861L6.40807 7.82207ZM20.0001 15.7861L18.0001 13.7861V10.0001C18.0003 8.94773 17.7237 7.91386 17.1981 7.00218C16.6725 6.09051 15.9163 5.33311 15.0055 4.80599C14.0947 4.27886 13.0613 4.00055 12.009 3.99899C10.9567 3.99742 9.92242 4.27265 9.01007 4.79707L7.56007 3.34507C8.7648 2.54128 10.1651 2.07961 11.6117 2.0093C13.0582 1.93899 14.4967 2.26268 15.7737 2.94584C17.0508 3.629 18.1184 4.646 18.8627 5.88835C19.607 7.1307 20.0001 8.55181 20.0001 10.0001V15.7861ZM9.50007 21.0001H14.5001C14.5001 21.6631 14.2367 22.299 13.7678 22.7678C13.299 23.2367 12.6631 23.5001 12.0001 23.5001C11.337 23.5001 10.7011 23.2367 10.2323 22.7678C9.76346 22.299 9.50007 21.6631 9.50007 21.0001Z" fill="#232634"/>
</svg>
