<svg width="24" height="24" viewBox="0 0 24 24" fill="none" xmlns="http://www.w3.org/2000/svg">
<path d="M18.5861 20.0001H4.00007C3.90721 20.0001 3.81619 19.9742 3.7372 19.9254C3.65821 19.8766 3.59438 19.8067 3.55285 19.7237C3.51133 19.6406 3.49375 19.5476 3.50209 19.4552C3.51043 19.3627 3.54435 19.2744 3.60007 19.2001L4.00007 18.6671V10.0001C4.00007 8.67007 4.32407 7.41607 4.89907 6.31307L1.39307 2.80807L2.80807 1.39307L22.6071 21.1931L21.1921 22.6071L18.5861 20.0001ZM20.0001 15.7861L7.55907 3.34507C8.76381 2.54101 10.1642 2.07912 11.6109 2.00867C13.0577 1.93822 14.4963 2.26186 15.7735 2.94505C17.0507 3.62824 18.1184 4.64535 18.8628 5.88785C19.6071 7.13036 20.0002 8.55165 20.0001 10.0001V15.7861ZM9.50007 21.0001H14.5001C14.5001 21.6631 14.2367 22.299 13.7678 22.7678C13.299 23.2367 12.6631 23.5001 12.0001 23.5001C11.337 23.5001 10.7011 23.2367 10.2323 22.7678C9.76346 22.299 9.50007 21.6631 9.50007 21.0001Z" fill="#232634"/>
</svg>
