<svg width="24" height="24" viewBox="0 0 24 24" fill="none" xmlns="http://www.w3.org/2000/svg">
<path d="M14.341 12.0303L18.684 16.3733L13.028 22.0293H11.028V15.3433L6.664 19.7073L5.249 18.2933L11.028 12.5153V11.5453L5.249 5.7653L6.664 4.3513L11.028 8.7153V2.0293H13.028L18.684 7.6863L14.341 12.0293V12.0303ZM13.028 13.5443V19.2013L15.856 16.3733L13.028 13.5443ZM13.028 10.5143L15.856 7.6863L13.028 4.8583V10.5153V10.5143ZM19.5 13.5003C19.1022 13.5003 18.7206 13.3423 18.4393 13.061C18.158 12.7797 18 12.3981 18 12.0003C18 11.6025 18.158 11.2209 18.4393 10.9396C18.7206 10.6583 19.1022 10.5003 19.5 10.5003C19.8978 10.5003 20.2794 10.6583 20.5607 10.9396C20.842 11.2209 21 11.6025 21 12.0003C21 12.3981 20.842 12.7797 20.5607 13.061C20.2794 13.3423 19.8978 13.5003 19.5 13.5003ZM6.5 13.5003C6.10218 13.5003 5.72064 13.3423 5.43934 13.061C5.15804 12.7797 5 12.3981 5 12.0003C5 11.6025 5.15804 11.2209 5.43934 10.9396C5.72064 10.6583 6.10218 10.5003 6.5 10.5003C6.89782 10.5003 7.27936 10.6583 7.56066 10.9396C7.84196 11.2209 8 11.6025 8 12.0003C8 12.3981 7.84196 12.7797 7.56066 13.061C7.27936 13.3423 6.89782 13.5003 6.5 13.5003Z" fill="#232634"/>
</svg>
