<svg width="24" height="24" viewBox="0 0 24 24" fill="none" xmlns="http://www.w3.org/2000/svg">
<path d="M4.92901 2.9292L6.34301 4.3432C5.59904 5.08528 5.00906 5.96706 4.60697 6.93788C4.20488 7.9087 3.99861 8.94941 4.00001 10.0002C4.00001 12.2102 4.89501 14.2102 6.34301 15.6572L4.93001 17.0702C3.99998 16.1428 3.26237 15.0409 2.75954 13.8276C2.25672 12.6143 1.9986 11.3136 2.00001 10.0002C1.99833 8.68674 2.25623 7.38589 2.75889 6.17241C3.26154 4.95894 3.99904 3.85675 4.92901 2.9292ZM19.071 2.9292C20.001 3.85675 20.7385 4.95894 21.2411 6.17241C21.7438 7.38589 22.0017 8.68674 22 10.0002C22.0017 11.3137 21.7438 12.6145 21.2411 13.828C20.7385 15.0415 20.001 16.1436 19.071 17.0712L17.657 15.6572C18.401 14.9151 18.991 14.0333 19.393 13.0625C19.7951 12.0917 20.0014 11.051 20 10.0002C20 7.7902 19.105 5.7902 17.657 4.3432L19.07 2.9302L19.071 2.9292ZM7.75701 5.7572L9.17201 7.1722C8.79997 7.54312 8.50491 7.98391 8.30378 8.46923C8.10264 8.95456 7.99941 9.47485 8.00001 10.0002C8.00001 11.1052 8.44801 12.1052 9.17201 12.8282L7.75701 14.2432C7.19904 13.6866 6.75657 13.0252 6.45504 12.2971C6.15352 11.5689 5.99888 10.7883 6.00001 10.0002C6.00001 8.3432 6.67201 6.8432 7.75701 5.7572ZM16.243 5.7572C16.801 6.3138 17.2434 6.97519 17.545 7.70335C17.8465 8.43151 18.0011 9.21208 18 10.0002C18.0011 10.7883 17.8465 11.5689 17.545 12.2971C17.2434 13.0252 16.801 13.6866 16.243 14.2432L14.828 12.8282C15.2 12.4573 15.4951 12.0165 15.6962 11.5312C15.8974 11.0458 16.0006 10.5255 16 10.0002C16.0006 9.47485 15.8974 8.95456 15.6962 8.46923C15.4951 7.98391 15.2 7.54312 14.828 7.1722L16.243 5.7572ZM12 12.0002C11.4696 12.0002 10.9609 11.7895 10.5858 11.4144C10.2107 11.0393 10 10.5306 10 10.0002C10 9.46977 10.2107 8.96106 10.5858 8.58599C10.9609 8.21091 11.4696 8.0002 12 8.0002C12.5304 8.0002 13.0391 8.21091 13.4142 8.58599C13.7893 8.96106 14 9.46977 14 10.0002C14 10.5306 13.7893 11.0393 13.4142 11.4144C13.0391 11.7895 12.5304 12.0002 12 12.0002ZM11 14.0002H13V22.0002H11V14.0002Z" fill="#232634"/>
</svg>
