<svg width="24" height="24" viewBox="0 0 24 24" fill="none" xmlns="http://www.w3.org/2000/svg">
<path d="M19.5861 21.0001H3.00007C2.73485 21.0001 2.4805 20.8947 2.29296 20.7072C2.10542 20.5196 2.00007 20.2653 2.00007 20.0001V6.00007C2.00007 5.73485 2.10542 5.4805 2.29296 5.29296C2.4805 5.10542 2.73485 5.00007 3.00007 5.00007H3.58607L1.39307 2.80807L2.80807 1.39307L22.6071 21.1931L21.1921 22.6071L19.5861 21.0001ZM5.58607 7.00007H4.00007V19.0001H17.5861L15.4061 16.8201C14.3486 17.657 13.0205 18.0762 11.6742 17.9981C10.3279 17.92 9.05726 17.35 8.10368 16.3965C7.1501 15.4429 6.5801 14.1722 6.502 12.8259C6.4239 11.4796 6.84315 10.1515 7.68007 9.09407L5.58607 7.00007ZM9.11007 10.5251C8.64905 11.1988 8.43805 12.0125 8.51359 12.8254C8.58912 13.6383 8.94644 14.3992 9.5237 14.9764C10.101 15.5537 10.8619 15.911 11.6747 15.9865C12.4876 16.0621 13.3013 15.8511 13.9751 15.3901L9.11007 10.5251ZM22.0001 17.7851L20.0001 15.7851V7.00007H16.1721L14.1721 5.00007H9.82807L9.52107 5.30707L8.10707 3.89307L9.00007 3.00007H15.0001L17.0001 5.00007H21.0001C21.2653 5.00007 21.5196 5.10542 21.7072 5.29296C21.8947 5.4805 22.0001 5.73485 22.0001 6.00007V17.7861V17.7851ZM11.2631 7.05007C12.1024 6.93646 12.9567 7.01825 13.7592 7.28905C14.5618 7.55985 15.2909 8.01236 15.8899 8.61128C16.4888 9.21021 16.9413 9.93937 17.2121 10.7419C17.4829 11.5445 17.5647 12.3987 17.4511 13.2381L15.1131 10.9001C14.7783 10.2513 14.2499 9.72282 13.6011 9.38807L11.2631 7.05007Z" fill="#232634"/>
</svg>
