<svg width="24" height="24" viewBox="0 0 24 24" fill="none" xmlns="http://www.w3.org/2000/svg">
<path d="M7.58272 12.2958C7.15844 12.6494 7.10112 13.2799 7.45468 13.7042C7.80824 14.1285 8.43881 14.1858 8.86308 13.8323L7.58272 12.2958ZM12.2004 9.74945L12.8406 8.98123C12.4697 8.67219 11.9311 8.67219 11.5602 8.98123L12.2004 9.74945ZM15.5377 13.8323C15.962 14.1858 16.5926 14.1285 16.9461 13.7042C17.2997 13.2799 17.2424 12.6494 16.8181 12.2958L15.5377 13.8323ZM8.86308 13.8323L12.8406 10.5177L11.5602 8.98123L7.58272 12.2958L8.86308 13.8323ZM11.5602 10.5177L15.5377 13.8323L16.8181 12.2958L12.8406 8.98123L11.5602 10.5177ZM20 12C20 16.4183 16.4183 20 12 20V22C17.5228 22 22 17.5228 22 12H20ZM12 20C7.58172 20 4 16.4183 4 12H2C2 17.5228 6.47715 22 12 22V20ZM4 12C4 7.58172 7.58172 4 12 4V2C6.47715 2 2 6.47715 2 12H4ZM12 4C16.4183 4 20 7.58172 20 12H22C22 6.47715 17.5228 2 12 2V4Z" fill="#232634"/>
</svg>
