<svg width="24" height="24" viewBox="0 0 24 24" fill="none" xmlns="http://www.w3.org/2000/svg">
<path d="M3.51487 2.10001L22.6069 21.192L21.1919 22.607L19.1779 20.592C18.4836 20.8624 17.7449 21.0008 16.9999 21H6.99987C5.5831 21.0009 4.21172 20.5004 3.12856 19.5872C2.0454 18.6739 1.32035 17.4069 1.08178 16.0103C0.843215 14.6138 1.10653 13.1779 1.82511 11.9569C2.54368 10.7358 3.67115 9.80849 5.00787 9.33901C4.96508 8.47016 5.08479 7.60095 5.36087 6.77601L2.09987 3.51401L3.51487 2.10001ZM16.9999 9.00001C18.0518 9.00065 19.0851 9.2777 19.9962 9.8034C20.9074 10.3291 21.6644 11.085 22.1914 11.9954C22.7184 12.9057 22.997 13.9386 22.9992 14.9905C23.0014 16.0424 22.7271 17.0765 22.2039 17.989L14.0099 9.79601C14.8899 9.29001 15.9099 9.00001 16.9999 9.00001ZM11.9999 2.00001C13.5422 2.00014 15.0413 2.5094 16.2645 3.44876C17.4878 4.38811 18.3667 5.705 18.7649 7.19501C17.7064 6.95739 16.6108 6.93679 15.5441 7.13445C14.4774 7.3321 13.4619 7.74391 12.5589 8.34501L7.69387 3.48001C8.92305 2.51854 10.4393 1.99739 11.9999 2.00001Z" fill="#232634"/>
</svg>
