<svg width="24" height="24" viewBox="0 0 24 24" fill="none" xmlns="http://www.w3.org/2000/svg">
<path d="M16.9999 6.99988C15.3712 6.99974 13.7812 7.49654 12.4423 8.42392C11.1034 9.3513 10.0794 10.6651 9.50687 12.1899L11.3809 12.8929C11.8759 11.5783 12.8163 10.4789 14.0383 9.78629C15.2604 9.09364 16.6867 8.85156 18.0688 9.1022C19.451 9.35284 20.7014 10.0803 21.6025 11.158C22.5035 12.2356 22.998 13.5952 22.9999 14.9999C22.9999 16.5912 22.3677 18.1173 21.2425 19.2425C20.1173 20.3677 18.5912 20.9999 16.9999 20.9999H6.99987C5.5831 21.0008 4.21172 20.5003 3.12856 19.587C2.0454 18.6738 1.32035 17.4067 1.08178 16.0102C0.843215 14.6137 1.10653 13.1777 1.82511 11.9567C2.54368 10.7357 3.67115 9.80836 5.00787 9.33888C4.92222 7.61149 5.47908 5.91355 6.57109 4.5724C7.66311 3.23124 9.21296 2.34183 10.9219 2.07562C12.6307 1.80942 14.3777 2.18527 15.8259 3.13073C17.2741 4.07618 18.3211 5.52429 18.7649 7.19588C18.1856 7.06547 17.5936 6.99973 16.9999 6.99988Z" fill="#232634"/>
</svg>
