<svg width="24" height="24" viewBox="0 0 24 24" fill="none" xmlns="http://www.w3.org/2000/svg">
<path d="M3.51487 2.10001L22.6069 21.192L21.1919 22.607L19.1779 20.592C18.4836 20.8624 17.7449 21.0008 16.9999 21H6.99987C5.5831 21.0009 4.21172 20.5004 3.12856 19.5872C2.0454 18.6739 1.32035 17.4069 1.08178 16.0103C0.843215 14.6138 1.10653 13.1779 1.82511 11.9569C2.54368 10.7358 3.67115 9.80849 5.00787 9.33901C4.96508 8.47016 5.08479 7.60095 5.36087 6.77601L2.09987 3.51401L3.51487 2.10001ZM6.99987 9.00001C6.99987 9.08101 7.00187 9.16301 7.00587 9.24301L7.07587 10.731L5.67187 11.225C4.78238 11.5396 4.03263 12.1583 3.55497 12.9719C3.07732 13.7856 2.90249 14.7418 3.06133 15.6718C3.22018 16.6018 3.7025 17.4458 4.42314 18.0548C5.14378 18.6637 6.0564 18.9985 6.99987 19H16.9999C17.1859 19 17.3689 18.987 17.5479 18.963L7.02987 8.44501C7.00987 8.62701 6.99987 8.81201 6.99987 9.00001ZM11.9999 2.00001C12.9477 1.99998 13.8856 2.19244 14.7569 2.56571C15.6281 2.93898 16.4144 3.48529 17.0682 4.17153C17.722 4.85776 18.2296 5.66962 18.5603 6.55788C18.8909 7.44614 19.0378 8.39231 18.9919 9.33901C19.8224 9.63156 20.5783 10.1032 21.2062 10.7206C21.834 11.3379 22.3184 12.0859 22.6249 12.9113C22.9314 13.7368 23.0526 14.6195 22.9798 15.497C22.9071 16.3746 22.6422 17.2253 22.2039 17.989L20.7109 16.496C21.0051 15.7681 21.0786 14.9696 20.9221 14.2002C20.7656 13.4307 20.3861 12.7244 19.8308 12.1692C19.2755 11.6141 18.5691 11.2347 17.7997 11.0783C17.0302 10.922 16.2318 10.9956 15.5039 11.29L14.0099 9.79501C14.8909 9.29001 15.9109 9.00001 16.9999 9.00001C16.9999 8.08447 16.7485 7.18651 16.2731 6.40405C15.7978 5.62158 15.1167 4.98466 14.3042 4.56272C13.4917 4.14078 12.5789 3.95003 11.6654 4.01127C10.7519 4.07251 9.8728 4.38339 9.12387 4.91001L7.69387 3.48001C8.92305 2.51854 10.4393 1.99739 11.9999 2.00001Z" fill="#232634"/>
</svg>
