<svg width="24" height="24" viewBox="0 0 24 24" fill="none" xmlns="http://www.w3.org/2000/svg">
<path d="M16.9999 21H6.99987C5.5831 21.0009 4.21172 20.5004 3.12856 19.5871C2.0454 18.6739 1.32035 17.4068 1.08178 16.0103C0.843215 14.6137 1.10653 13.1778 1.82511 11.9568C2.54368 10.7358 3.67115 9.80844 5.00787 9.33896C4.96259 8.39262 5.10989 7.44694 5.44083 6.5592C5.77178 5.67146 6.2795 4.86014 6.93322 4.17438C7.58694 3.48863 8.37307 2.94272 9.24398 2.56972C10.1149 2.19672 11.0525 2.00439 11.9999 2.00439C12.9473 2.00439 13.8849 2.19672 14.7558 2.56972C15.6267 2.94272 16.4128 3.48863 17.0665 4.17438C17.7203 4.86014 18.228 5.67146 18.5589 6.5592C18.8899 7.44694 19.0372 8.39262 18.9919 9.33896C20.3286 9.80844 21.4561 10.7358 22.1746 11.9568C22.8932 13.1778 23.1565 14.6137 22.918 16.0103C22.6794 17.4068 21.9543 18.6739 20.8712 19.5871C19.788 20.5004 18.4166 21.0009 16.9999 21ZM16.9999 8.99996C17.0001 8.33297 16.8669 7.67266 16.6081 7.05793C16.3493 6.4432 15.9701 5.88646 15.4928 5.4205C15.0156 4.95454 14.4499 4.58878 13.8292 4.34475C13.2084 4.10072 12.5451 3.98336 11.8783 3.99957C11.2115 4.01578 10.5547 4.16525 9.94657 4.43916C9.33841 4.71307 8.7912 5.10589 8.33716 5.59449C7.88312 6.08309 7.53143 6.6576 7.3028 7.28418C7.07417 7.91077 6.97321 8.57677 7.00587 9.24296L7.07587 10.731L5.67187 11.225C4.78238 11.5395 4.03263 12.1583 3.55497 12.9719C3.07732 13.7855 2.90249 14.7418 3.06133 15.6718C3.22018 16.6018 3.7025 17.4458 4.42314 18.0547C5.14378 18.6637 6.0564 18.9985 6.99987 19H16.9999C17.7362 18.9997 18.4582 18.7962 19.0863 18.4119C19.7144 18.0276 20.2242 17.4774 20.5596 16.8218C20.895 16.1663 21.0429 15.4309 20.9871 14.6967C20.9312 13.9625 20.6738 13.2579 20.2432 12.6606C19.8126 12.0633 19.2254 11.5965 18.5464 11.3116C17.8675 11.0266 17.123 10.9347 16.3951 11.0457C15.6672 11.1568 14.9841 11.4667 14.421 11.9412C13.8579 12.4157 13.4367 13.0364 13.2039 13.735L11.3059 13.102C11.7047 11.9073 12.4692 10.8684 13.491 10.1323C14.5129 9.3961 15.7404 8.99997 16.9999 8.99996Z" fill="#232634"/>
</svg>
