<svg width="24" height="24" viewBox="0 0 24 24" fill="none" xmlns="http://www.w3.org/2000/svg">
<path d="M12 2L16.4444 6.44444L12 10.8889L7.55556 6.44444L12 2ZM6.44444 7.55556L10.8889 12L6.44444 16.4444L2 12L6.44444 7.55556ZM17.5556 7.55556L22 12L17.5556 16.4444L13.1111 12L17.5556 7.55556ZM12 13.1111L16.4444 17.5556L12 22L7.55556 17.5556L12 13.1111ZM17.5556 9.77778L15.3333 12L17.5556 14.2222L19.7778 12L17.5556 9.77778ZM12 15.3333L9.77778 17.5556L12 19.7778L14.2222 17.5556L12 15.3333ZM12 4.22222L9.77778 6.44444L12 8.66667L14.2222 6.44444L12 4.22222ZM6.44444 9.77778L4.22222 12L6.44444 14.2222L8.66667 12L6.44444 9.77778Z" fill="#232634"/>
</svg>
