<svg width="24" height="24" viewBox="0 0 24 24" fill="none" xmlns="http://www.w3.org/2000/svg">
<g opacity="0.9">
<path d="M12.3999 22C6.8769 22 2.3999 17.523 2.3999 12C2.3999 6.477 6.8769 2 12.3999 2C17.9229 2 22.3999 6.477 22.3999 12C22.3999 17.523 17.9229 22 12.3999 22ZM12.3999 20C14.5216 20 16.5565 19.1571 18.0568 17.6569C19.557 16.1566 20.3999 14.1217 20.3999 12C20.3999 9.87827 19.557 7.84344 18.0568 6.34315C16.5565 4.84285 14.5216 4 12.3999 4C10.2782 4 8.24334 4.84285 6.74305 6.34315C5.24276 7.84344 4.3999 9.87827 4.3999 12C4.3999 14.1217 5.24276 16.1566 6.74305 17.6569C8.24334 19.1571 10.2782 20 12.3999 20ZM7.3999 11H17.3999V13H7.3999V11Z" fill="#232634"/>
</g>
</svg>
