<svg width="24" height="24" viewBox="0 0 24 24" fill="none" xmlns="http://www.w3.org/2000/svg">
<path d="M5.19995 10C4.09995 10 3.19995 10.9 3.19995 12C3.19995 13.1 4.09995 14 5.19995 14C6.29995 14 7.19995 13.1 7.19995 12C7.19995 10.9 6.29995 10 5.19995 10ZM19.2 10C18.1 10 17.2 10.9 17.2 12C17.2 13.1 18.1 14 19.2 14C20.3 14 21.2 13.1 21.2 12C21.2 10.9 20.3 10 19.2 10ZM12.2 10C11.1 10 10.2 10.9 10.2 12C10.2 13.1 11.1 14 12.2 14C13.3 14 14.2 13.1 14.2 12C14.2 10.9 13.3 10 12.2 10Z" fill="#232634"/>
</svg>
