<svg width="24" height="24" viewBox="0 0 24 24" fill="none" xmlns="http://www.w3.org/2000/svg">
<path d="M20.5375 16.8379V20.0395C20.5375 20.3063 20.4417 20.5331 20.2502 20.7198C20.0586 20.9066 19.826 21 19.5524 21H4.4475C4.17386 21 3.94127 20.9066 3.74972 20.7198C3.55818 20.5331 3.4624 20.3063 3.4624 20.0395V16.8379C3.4624 16.5711 3.55818 16.3443 3.74972 16.1576C3.94127 15.9708 4.17386 15.8774 4.4475 15.8774H8.09621C8.53778 15.8774 8.91347 16.1718 9.2112 16.4979C9.31114 16.6074 9.42494 16.7074 9.55259 16.7979C9.89122 17.038 10.2692 17.1581 10.6865 17.1581H13.3134C13.7307 17.1581 14.1087 17.038 14.4473 16.7979C14.575 16.7074 14.6888 16.6074 14.7887 16.4979C15.0864 16.1718 15.4621 15.8774 15.9037 15.8774H19.5524C19.826 15.8774 20.0586 15.9708 20.2502 16.1576C20.4417 16.3443 20.5375 16.5711 20.5375 16.8379Z" stroke="#232634" stroke-width="2" stroke-linejoin="round"/>
<path d="M16.4633 8.12241C16.7506 8.12241 16.9524 8.25581 17.0687 8.52261C17.185 8.78274 17.1371 9.01285 16.9251 9.21295L12.3279 13.6952C12.2048 13.8219 12.0509 13.8853 11.8662 13.8853C11.6815 13.8853 11.5275 13.8219 11.4044 13.6952L6.80725 9.21295C6.59518 9.01285 6.54729 8.78274 6.66359 8.52261C6.77989 8.25581 6.9817 8.12241 7.26902 8.12241H9.89596V3.6402C9.89596 3.46678 9.96094 3.3167 10.0909 3.18998C10.2209 3.06325 10.3748 2.99988 10.5527 2.99988H13.1796C13.3575 2.99988 13.5114 3.06325 13.6414 3.18998C13.7714 3.3167 13.8364 3.46678 13.8364 3.6402V8.12241H16.4633Z" stroke="#232634" stroke-width="2" stroke-linejoin="round"/>
</svg>
