<svg width="24" height="24" viewBox="0 0 24 24" fill="none" xmlns="http://www.w3.org/2000/svg">
<path d="M7 20.9813C5.63405 20.8764 4.33616 20.3426 3.29165 19.4561C2.24715 18.5696 1.50944 17.3758 1.18385 16.0451C0.858269 14.7144 0.961464 13.3148 1.4787 12.0462C1.99594 10.7777 2.90077 9.70494 4.064 8.98125C4.31151 7.05134 5.25379 5.27776 6.71451 3.99241C8.17523 2.70706 10.0543 1.99805 12 1.99805C13.9457 1.99805 15.8248 2.70706 17.2855 3.99241C18.7462 5.27776 19.6885 7.05134 19.936 8.98125C21.0992 9.70494 22.0041 10.7777 22.5213 12.0462C23.0385 13.3148 23.1417 14.7144 22.8161 16.0451C22.4906 17.3758 21.7528 18.5696 20.7083 19.4561C19.6638 20.3426 18.3659 20.8764 17 20.9813V21.0003H7V20.9813ZM13 12.0003V8.00025H11V12.0003H8L12 17.0003L16 12.0003H13Z" fill="#232634"/>
</svg>
