<svg width="24" height="24" viewBox="0 0 24 24" fill="none" xmlns="http://www.w3.org/2000/svg">
<path d="M1 14.5003C0.999385 13.3957 1.28042 12.3093 1.81655 11.3436C2.35268 10.3779 3.1262 9.56481 4.064 8.98125C4.31151 7.05134 5.2538 5.27776 6.71452 3.99241C8.17524 2.70706 10.0543 1.99805 12 1.99805C13.9457 1.99805 15.8248 2.70706 17.2855 3.99241C18.7462 5.27776 19.6885 7.05134 19.936 8.98125C21.0992 9.70494 22.0041 10.7777 22.5213 12.0462C23.0385 13.3148 23.1417 14.7144 22.8161 16.0451C22.4906 17.3758 21.7528 18.5696 20.7083 19.4561C19.6638 20.3426 18.366 20.8764 17 20.9813L7 21.0003C3.644 20.7263 1 17.9223 1 14.5003ZM16.848 18.9873C17.7938 18.9145 18.6925 18.5448 19.4156 17.9308C20.1387 17.3168 20.6493 16.49 20.8745 15.5685C21.0996 14.647 21.0278 13.6779 20.6692 12.7996C20.3107 11.9214 19.6837 11.1789 18.878 10.6783L18.071 10.1753L17.951 9.23325C17.7641 7.78694 17.0569 6.45819 15.9616 5.49534C14.8663 4.53249 13.4578 4.00144 11.9995 4.00144C10.5412 4.00144 9.13272 4.53249 8.03742 5.49534C6.94213 6.45819 6.23493 7.78694 6.048 9.23325L5.928 10.1753L5.123 10.6783C4.3173 11.1788 3.69038 11.9212 3.3318 12.7994C2.97321 13.6776 2.90129 14.6466 3.12631 15.5681C3.35133 16.4895 3.86177 17.3164 4.58475 17.9304C5.30773 18.5445 6.20625 18.9143 7.152 18.9873L7.325 19.0003H16.675L16.848 18.9873ZM13 12.0003H16L12 17.0003L8 12.0003H11V8.00025H13V12.0003Z" fill="#232634"/>
</svg>
