<svg width="24" height="24" viewBox="0 0 24 24" fill="none" xmlns="http://www.w3.org/2000/svg">
<path d="M9.34203 18.7824L7.41103 18.2644L8.19803 15.3254C7.01999 14.8909 5.92514 14.2577 4.96103 13.4534L2.80803 15.6074L1.39303 14.1924L3.54703 12.0394C2.3311 10.5831 1.51411 8.83611 1.17603 6.96935L3.14403 6.61035C3.90303 10.8124 7.57903 14.0004 12 14.0004C16.42 14.0004 20.097 10.8124 20.856 6.61035L22.824 6.96835C22.4864 8.83537 21.6697 10.5827 20.454 12.0394L22.607 14.1924L21.192 15.6074L19.039 13.4534C18.0749 14.2577 16.9801 14.8909 15.802 15.3254L16.589 18.2654L14.658 18.7824L13.87 15.8424C12.6324 16.0544 11.3677 16.0544 10.13 15.8424L9.34203 18.7824Z" fill="#232634"/>
</svg>
