<svg width="24" height="24" viewBox="0 0 24 24" fill="none" xmlns="http://www.w3.org/2000/svg">
<path d="M10.13 15.8417L9.34203 18.7817L7.41103 18.2637L8.19803 15.3247C7.01999 14.8902 5.92514 14.2571 4.96103 13.4527L2.80803 15.6067L1.39303 14.1917L3.54703 12.0387C2.3311 10.5825 1.51411 8.83547 1.17603 6.96871L2.07603 6.80371C4.96525 8.88689 8.43812 10.0053 12 9.99971C15.704 9.99971 19.131 8.81471 21.924 6.80371L22.824 6.96771C22.4864 8.83473 21.6697 10.5821 20.454 12.0387L22.607 14.1917L21.192 15.6067L19.039 13.4527C18.0749 14.2571 16.9801 14.8902 15.802 15.3247L16.589 18.2647L14.658 18.7817L13.87 15.8417C12.6324 16.0538 11.3677 16.0538 10.13 15.8417Z" fill="#232634"/>
</svg>
