<svg width="24" height="24" viewBox="0 0 24 24" fill="none" xmlns="http://www.w3.org/2000/svg">
<path d="M4.52003 5.93407L1.39303 2.80807L2.80803 1.39307L22.607 21.1931L21.192 22.6071L17.882 19.2971C16.1232 20.4126 14.0828 21.0034 12 21.0001C6.60803 21.0001 2.12203 17.1201 1.18103 12.0001C1.61106 9.67078 2.78266 7.54296 4.52103 5.93407H4.52003ZM14.757 16.1721L13.293 14.7081C12.7331 14.976 12.1038 15.0636 11.492 14.9589C10.8801 14.8541 10.3158 14.5621 9.8769 14.1232C9.43797 13.6843 9.146 13.12 9.04125 12.5081C8.93649 11.8963 9.02411 11.267 9.29203 10.7071L7.82803 9.24307C7.19175 10.2046 6.9073 11.3564 7.02286 12.5036C7.13842 13.6507 7.64688 14.7227 8.46215 15.5379C9.27742 16.3532 10.3494 16.8617 11.4965 16.9772C12.6437 17.0928 13.7955 16.8084 14.757 16.1721ZM7.97403 3.76007C9.22103 3.27007 10.58 3.00007 12 3.00007C17.392 3.00007 21.878 6.88007 22.819 12.0001C22.5126 13.6658 21.8239 15.2376 20.807 16.5921L16.947 12.7321C17.0617 11.9597 16.9939 11.1712 16.749 10.4297C16.5041 9.68827 16.0889 9.01448 15.5368 8.46233C14.9846 7.91019 14.3108 7.49504 13.5694 7.25014C12.8279 7.00524 12.0394 6.93741 11.267 7.05207L7.97403 3.76107V3.76007Z" fill="#232634"/>
</svg>
