<svg width="24" height="24" viewBox="0 0 24 24" fill="none" xmlns="http://www.w3.org/2000/svg">
<path d="M9.00002 9.86012L5.96802 12.0001L9.00002 14.1401V9.86012ZM10.908 17.3231C10.8315 17.4312 10.7153 17.5045 10.5848 17.527C10.4543 17.5495 10.3203 17.5193 10.212 17.4431L3.07902 12.4081C3.0138 12.3619 2.96061 12.3008 2.92391 12.2298C2.8872 12.1588 2.86804 12.08 2.86804 12.0001C2.86804 11.9202 2.8872 11.8414 2.92391 11.7705C2.96061 11.6995 3.0138 11.6383 3.07902 11.5921L10.212 6.55612C10.2869 6.50335 10.3749 6.47217 10.4663 6.46598C10.5577 6.4598 10.649 6.47885 10.7304 6.52106C10.8117 6.56327 10.8798 6.62701 10.9274 6.70532C10.9749 6.78363 11.0001 6.8735 11 6.96512V17.0351C10.9998 17.1383 10.9677 17.2389 10.908 17.3231ZM18 14.1401V9.86012L14.968 12.0001L18 14.1401ZM12.079 12.4081C12.0138 12.3619 11.9606 12.3008 11.9239 12.2298C11.8872 12.1588 11.868 12.08 11.868 12.0001C11.868 11.9202 11.8872 11.8414 11.9239 11.7705C11.9606 11.6995 12.0138 11.6383 12.079 11.5921L19.212 6.55612C19.2869 6.50335 19.3749 6.47217 19.4663 6.46598C19.5577 6.4598 19.649 6.47885 19.7304 6.52106C19.8117 6.56327 19.8798 6.62701 19.9274 6.70532C19.9749 6.78363 20.0001 6.8735 20 6.96512V17.0351C20.0001 17.1267 19.9749 17.2166 19.9274 17.2949C19.8798 17.3732 19.8117 17.437 19.7304 17.4792C19.649 17.5214 19.5577 17.5404 19.4663 17.5343C19.3749 17.5281 19.2869 17.4969 19.212 17.4441L12.079 12.4081Z" fill="#232634"/>
</svg>
