<svg width="24" height="24" viewBox="0 0 24 24" fill="none" xmlns="http://www.w3.org/2000/svg">
<path d="M12 13.3328L2.777 19.4818C2.70171 19.5319 2.61423 19.5607 2.52389 19.565C2.43355 19.5693 2.34373 19.5491 2.264 19.5064C2.18427 19.4637 2.1176 19.4002 2.07111 19.3226C2.02462 19.245 2.00005 19.1563 2 19.0658V4.93382C2.00005 4.84338 2.02462 4.75465 2.07111 4.67707C2.1176 4.59949 2.18427 4.53597 2.264 4.49328C2.34373 4.45059 2.43355 4.43033 2.52389 4.43465C2.61423 4.43897 2.70171 4.46772 2.777 4.51782L12 10.6668V4.93382C12 4.84338 12.0246 4.75465 12.0711 4.67707C12.1176 4.59949 12.1843 4.53597 12.264 4.49328C12.3437 4.45059 12.4336 4.43033 12.5239 4.43465C12.6142 4.43897 12.7017 4.46772 12.777 4.51782L23.376 11.5838C23.4445 11.6295 23.5006 11.6913 23.5395 11.7639C23.5783 11.8365 23.5986 11.9175 23.5986 11.9998C23.5986 12.0821 23.5783 12.1632 23.5395 12.2357C23.5006 12.3083 23.4445 12.3702 23.376 12.4158L12.777 19.4818C12.7017 19.5319 12.6142 19.5607 12.5239 19.565C12.4336 19.5693 12.3437 19.5491 12.264 19.5064C12.1843 19.4637 12.1176 19.4002 12.0711 19.3226C12.0246 19.245 12 19.1563 12 19.0658V13.3328Z" fill="#232634"/>
</svg>
