<svg width="24" height="24" viewBox="0 0 24 24" fill="none" xmlns="http://www.w3.org/2000/svg">
<path d="M4.788 17.4441C4.71311 17.4969 4.62515 17.5281 4.53374 17.5343C4.44233 17.5404 4.35098 17.5214 4.26966 17.4792C4.18834 17.437 4.12018 17.3732 4.07263 17.2949C4.02507 17.2166 3.99995 17.1267 4 17.0351V6.96512C3.99995 6.8735 4.02507 6.78363 4.07263 6.70532C4.12018 6.62701 4.18834 6.56327 4.26966 6.52106C4.35098 6.47885 4.44233 6.4598 4.53374 6.46598C4.62515 6.47217 4.71311 6.50335 4.788 6.55612L11.921 11.5921C11.9862 11.6383 12.0394 11.6995 12.0761 11.7705C12.1128 11.8414 12.132 11.9202 12.132 12.0001C12.132 12.08 12.1128 12.1588 12.0761 12.2298C12.0394 12.3008 11.9862 12.3619 11.921 12.4081L4.788 17.4441ZM13 6.96512C12.9999 6.8735 13.0251 6.78363 13.0726 6.70532C13.1202 6.62701 13.1883 6.56327 13.2697 6.52106C13.351 6.47885 13.4423 6.4598 13.5337 6.46598C13.6252 6.47217 13.7131 6.50335 13.788 6.55612L20.921 11.5921C20.9862 11.6383 21.0394 11.6995 21.0761 11.7705C21.1128 11.8414 21.132 11.9202 21.132 12.0001C21.132 12.08 21.1128 12.1588 21.0761 12.2298C21.0394 12.3008 20.9862 12.3619 20.921 12.4081L13.788 17.4441C13.7131 17.4969 13.6252 17.5281 13.5337 17.5343C13.4423 17.5404 13.351 17.5214 13.2697 17.4792C13.1883 17.437 13.1202 17.3732 13.0726 17.2949C13.0251 17.2166 12.9999 17.1267 13 17.0351V6.96512Z" fill="#232634"/>
</svg>
