<svg width="24" height="24" viewBox="0 0 24 24" fill="none" xmlns="http://www.w3.org/2000/svg">
<path d="M12 10.6671L21.223 4.51807C21.2983 4.46796 21.3857 4.43922 21.4761 4.4349C21.5664 4.43058 21.6562 4.45084 21.736 4.49353C21.8157 4.53622 21.8824 4.59973 21.9289 4.67731C21.9754 4.75489 21.9999 4.84363 22 4.93407V19.0661C21.9999 19.1565 21.9754 19.2452 21.9289 19.3228C21.8824 19.4004 21.8157 19.4639 21.736 19.5066C21.6562 19.5493 21.5664 19.5696 21.4761 19.5652C21.3857 19.5609 21.2983 19.5322 21.223 19.4821L12 13.3331V19.0661C11.9999 19.1565 11.9754 19.2452 11.9289 19.3228C11.8824 19.4004 11.8157 19.4639 11.736 19.5066C11.6562 19.5493 11.5664 19.5696 11.4761 19.5652C11.3857 19.5609 11.2983 19.5322 11.223 19.4821L0.623979 12.4161C0.555501 12.3704 0.499353 12.3085 0.460519 12.236C0.421686 12.1634 0.401367 12.0824 0.401367 12.0001C0.401367 11.9178 0.421686 11.8367 0.460519 11.7642C0.499353 11.6916 0.555501 11.6297 0.623979 11.5841L11.223 4.51807C11.2983 4.46796 11.3857 4.43922 11.4761 4.4349C11.5664 4.43058 11.6562 4.45084 11.736 4.49353C11.8157 4.53622 11.8824 4.59973 11.9289 4.67731C11.9754 4.75489 11.9999 4.84363 12 4.93407V10.6671ZM9.99998 16.2631V7.73707L3.60598 12.0001L9.99998 16.2631ZM20 16.2631V7.73707L13.606 12.0001L20 16.2631Z" fill="#232634"/>
</svg>
