<svg width="24" height="24" viewBox="0 0 24 24" fill="none" xmlns="http://www.w3.org/2000/svg">
<path d="M15.8117 18.0002H14.7533C14.5685 18.0002 14.4761 17.912 14.4761 17.7356V11.423C14.4761 11.3306 14.4299 11.2844 14.3375 11.2844H12.9011C12.7247 11.2844 12.6365 11.1962 12.6365 11.0198V10.163C12.6365 9.98664 12.7247 9.89844 12.9011 9.89844H17.6639C17.8403 9.89844 17.9285 9.98664 17.9285 10.163V11.0198C17.9285 11.1962 17.8403 11.2844 17.6639 11.2844H16.2275C16.1267 11.2844 16.0763 11.3306 16.0763 11.423V17.7356C16.0763 17.912 15.9881 18.0002 15.8117 18.0002Z" fill="#232634"/>
<path fill-rule="evenodd" clip-rule="evenodd" d="M6.81909 10.163V17.7356C6.81909 17.912 6.90729 18.0002 7.08369 18.0002H10.2337C10.8889 18.0002 11.3971 17.8238 11.7583 17.471C12.1195 17.1182 12.3001 16.6142 12.3001 15.959V15.203C12.3001 14.7914 12.1993 14.4764 11.9977 14.258C11.7961 14.0312 11.5273 13.8926 11.1913 13.8422C11.8549 13.6322 12.1867 13.1702 12.1867 12.4562V11.9396C12.1867 11.2844 12.0061 10.7804 11.6449 10.4276C11.2837 10.0748 10.7713 9.89844 10.1077 9.89844H7.08369C6.90729 9.89844 6.81909 9.98664 6.81909 10.163ZM9.96909 16.6646H8.55789C8.46549 16.6646 8.41929 16.6184 8.41929 16.526V14.6234C8.41929 14.531 8.46549 14.4848 8.55789 14.4848H9.94389C10.2295 14.4848 10.4353 14.5394 10.5613 14.6486C10.6873 14.7578 10.7503 14.9426 10.7503 15.203V15.9338C10.7503 16.1942 10.6873 16.3832 10.5613 16.5008C10.4437 16.61 10.2463 16.6646 9.96909 16.6646ZM9.84309 13.187H8.55789C8.46549 13.187 8.41929 13.1408 8.41929 13.0484V11.3726C8.41929 11.2802 8.46549 11.234 8.55789 11.234H9.85569C10.1245 11.234 10.3177 11.2928 10.4353 11.4104C10.5613 11.5196 10.6243 11.7044 10.6243 11.9648V12.4562C10.6243 12.7166 10.5613 12.9056 10.4353 13.0232C10.3093 13.1324 10.1119 13.187 9.84309 13.187Z" fill="#232634"/>
<path fill-rule="evenodd" clip-rule="evenodd" d="M3 2.992C3 2.444 3.447 2 3.999 2H16L21 7V20.993C21.0009 21.1243 20.976 21.2545 20.9266 21.3762C20.8772 21.4979 20.8043 21.6087 20.7121 21.7022C20.6199 21.7957 20.5101 21.8701 20.3892 21.9212C20.2682 21.9723 20.1383 21.9991 20.007 22H3.993C3.73038 21.9982 3.47902 21.8931 3.29322 21.7075C3.10742 21.5219 3.00209 21.2706 3 21.008V2.992ZM15 4H5V20H19V8H15V4Z" fill="#232634"/>
</svg>
