<svg width="24" height="24" viewBox="0 0 24 24" fill="none" xmlns="http://www.w3.org/2000/svg">
<path fill-rule="evenodd" clip-rule="evenodd" d="M21 7L16 2H3.999C3.447 2 3 2.444 3 2.992V21.008C3 21.545 3.445 22 3.993 22H20.007C20.555 22 21 21.549 21 20.993V7ZM14.307 17.9016H15.233C15.3855 17.9016 15.4618 17.8253 15.4618 17.6728V15.3524C15.4618 15.2725 15.5054 15.2325 15.5925 15.2325H17.4554C17.6079 15.2325 17.6842 15.1526 17.6842 14.9929V14.263C17.6842 14.1104 17.6079 14.0342 17.4554 14.0342H15.5925C15.5054 14.0342 15.4618 13.9906 15.4618 13.9035V12.2149C15.4618 12.135 15.5054 12.0951 15.5925 12.0951H17.7822C17.9275 12.0951 18.0001 12.0188 18.0001 11.8663V11.1255C18.0001 10.973 17.9275 10.8967 17.7822 10.8967H14.307C14.1545 10.8967 14.0783 10.973 14.0783 11.1255V17.6728C14.0783 17.8253 14.1545 17.9016 14.307 17.9016ZM13.0477 11.1255V17.6728C13.0477 17.8253 12.9714 17.9016 12.8189 17.9016H11.8929C11.7404 17.9016 11.6641 17.8253 11.6641 17.6728V11.1255C11.6641 10.973 11.7404 10.8967 11.8929 10.8967H12.8189C12.9714 10.8967 13.0477 10.973 13.0477 11.1255ZM7.79751 17.9013H8.95227C9.51876 17.9013 9.95815 17.7488 10.2704 17.4438C10.5827 17.1315 10.7389 16.6921 10.7389 16.1256V14.3063C10.7389 14.1393 10.6554 14.0557 10.4883 14.0557H8.58188C8.42936 14.0557 8.35311 14.132 8.35311 14.2845V15.0253C8.35311 15.1778 8.42936 15.2541 8.58188 15.2541H9.23552C9.31541 15.2541 9.35535 15.294 9.35535 15.3739V16.0602C9.35535 16.2926 9.30815 16.4597 9.21373 16.5614C9.11932 16.6558 8.95591 16.703 8.7235 16.703H8.01539C7.79025 16.703 7.62684 16.6558 7.52516 16.5614C7.43075 16.4597 7.38354 16.2926 7.38354 16.0602V12.7376C7.38354 12.5052 7.43075 12.3418 7.52516 12.2473C7.62684 12.1457 7.79025 12.0948 8.01539 12.0948H8.7235C8.95591 12.0948 9.11932 12.1457 9.21373 12.2473C9.30815 12.3418 9.35535 12.5052 9.35535 12.7376V12.999C9.35535 13.1588 9.43161 13.2387 9.58413 13.2387H10.5101C10.6626 13.2387 10.7389 13.1588 10.7389 12.999V12.6722C10.7389 12.1057 10.5827 11.67 10.2704 11.3649C9.95815 11.0526 9.51876 10.8965 8.95227 10.8965H7.79751C7.22376 10.8965 6.78074 11.049 6.46844 11.354C6.15615 11.6591 6 12.0985 6 12.6722V16.1256C6 16.6994 6.15615 17.1387 6.46844 17.4438C6.78074 17.7488 7.22376 17.9013 7.79751 17.9013Z" fill="#232634"/>
</svg>
