<svg width="24" height="24" viewBox="0 0 24 24" fill="none" xmlns="http://www.w3.org/2000/svg">
<path fill-rule="evenodd" clip-rule="evenodd" d="M21 7L16 2H3.999C3.447 2 3 2.444 3 2.992V21.008C3 21.545 3.445 22 3.993 22H20.007C20.555 22 21 21.549 21 20.993V7ZM5 4H15V8H19V20H5V4ZM14.307 17.9018H15.233C15.3855 17.9018 15.4618 17.8255 15.4618 17.673V15.3526C15.4618 15.2727 15.5054 15.2328 15.5925 15.2328H17.4554C17.6079 15.2328 17.6842 15.1529 17.6842 14.9931V14.2632C17.6842 14.1107 17.6079 14.0344 17.4554 14.0344H15.5925C15.5054 14.0344 15.4618 13.9908 15.4618 13.9037V12.2151C15.4618 12.1352 15.5054 12.0953 15.5925 12.0953H17.7822C17.9275 12.0953 18.0001 12.019 18.0001 11.8665V11.1257C18.0001 10.9732 17.9275 10.897 17.7822 10.897H14.307C14.1545 10.897 14.0783 10.9732 14.0783 11.1257V17.673C14.0783 17.8255 14.1545 17.9018 14.307 17.9018ZM13.0477 11.1257V17.673C13.0477 17.8255 12.9714 17.9018 12.8189 17.9018H11.8929C11.7404 17.9018 11.6641 17.8255 11.6641 17.673V11.1257C11.6641 10.9732 11.7404 10.897 11.8929 10.897H12.8189C12.9714 10.897 13.0477 10.9732 13.0477 11.1257ZM7.79751 17.9016H8.95227C9.51876 17.9016 9.95815 17.749 10.2704 17.444C10.5827 17.1317 10.7389 16.6923 10.7389 16.1258V14.3065C10.7389 14.1395 10.6554 14.056 10.4883 14.056H8.58188C8.42936 14.056 8.35311 14.1322 8.35311 14.2848V15.0255C8.35311 15.1781 8.42936 15.2543 8.58188 15.2543H9.23552C9.31541 15.2543 9.35535 15.2943 9.35535 15.3742V16.0605C9.35535 16.2929 9.30815 16.4599 9.21373 16.5616C9.11932 16.656 8.95591 16.7032 8.7235 16.7032H8.01539C7.79025 16.7032 7.62684 16.656 7.52516 16.5616C7.43075 16.4599 7.38354 16.2929 7.38354 16.0605V12.7378C7.38354 12.5054 7.43075 12.342 7.52516 12.2476C7.62684 12.1459 7.79025 12.0951 8.01539 12.0951H8.7235C8.95591 12.0951 9.11932 12.1459 9.21373 12.2476C9.30815 12.342 9.35535 12.5054 9.35535 12.7378V12.9993C9.35535 13.159 9.43161 13.2389 9.58413 13.2389H10.5101C10.6626 13.2389 10.7389 13.159 10.7389 12.9993V12.6724C10.7389 12.106 10.5827 11.6702 10.2704 11.3652C9.95815 11.0529 9.51876 10.8967 8.95227 10.8967H7.79751C7.22376 10.8967 6.78074 11.0492 6.46844 11.3543C6.15615 11.6593 6 12.0987 6 12.6724V16.1258C6 16.6996 6.15615 17.139 6.46844 17.444C6.78074 17.749 7.22376 17.9016 7.79751 17.9016Z" fill="#232634"/>
</svg>
