<svg width="24" height="24" viewBox="0 0 24 24" fill="none" xmlns="http://www.w3.org/2000/svg">
<path fill-rule="evenodd" clip-rule="evenodd" d="M16 2L21 7V20.993C21 21.549 20.555 22 20.007 22H3.993C3.445 22 3 21.545 3 21.008V2.992C3 2.444 3.447 2 3.999 2H16ZM15.8114 18.0002H14.753C14.5682 18.0002 14.4758 17.912 14.4758 17.7356V11.423C14.4758 11.3306 14.4296 11.2844 14.3372 11.2844H12.9008C12.7244 11.2844 12.6362 11.1962 12.6362 11.0198V10.163C12.6362 9.98664 12.7244 9.89844 12.9008 9.89844H17.6636C17.84 9.89844 17.9282 9.98664 17.9282 10.163V11.0198C17.9282 11.1962 17.84 11.2844 17.6636 11.2844H16.2272C16.1264 11.2844 16.076 11.3306 16.076 11.423V17.7356C16.076 17.912 15.9878 18.0002 15.8114 18.0002ZM9.96897 16.6646H8.55777C8.46537 16.6646 8.41917 16.6184 8.41917 16.526V14.6234C8.41917 14.531 8.46537 14.4848 8.55777 14.4848H9.94377C10.2294 14.4848 10.4352 14.5394 10.5612 14.6486C10.6872 14.7578 10.7502 14.9426 10.7502 15.203V15.9338C10.7502 16.1942 10.6872 16.3832 10.5612 16.5008C10.4436 16.61 10.2462 16.6646 9.96897 16.6646ZM9.84297 13.187H8.55777C8.46537 13.187 8.41917 13.1408 8.41917 13.0484V11.3726C8.41917 11.2802 8.46537 11.234 8.55777 11.234H9.85557C10.1244 11.234 10.3176 11.2928 10.4352 11.4104C10.5612 11.5196 10.6242 11.7044 10.6242 11.9648V12.4562C10.6242 12.7166 10.5612 12.9056 10.4352 13.0232C10.3092 13.1324 10.1118 13.187 9.84297 13.187ZM6.81897 10.163V17.7356C6.81897 17.912 6.90717 18.0002 7.08357 18.0002H10.2336C10.8888 18.0002 11.397 17.8238 11.7582 17.471C12.1194 17.1182 12.3 16.6142 12.3 15.959V15.203C12.3 14.7914 12.1992 14.4764 11.9976 14.258C11.796 14.0312 11.5272 13.8926 11.1912 13.8422C11.8548 13.6322 12.1866 13.1702 12.1866 12.4562V11.9396C12.1866 11.2844 12.006 10.7804 11.6448 10.4276C11.2836 10.0748 10.7712 9.89844 10.1076 9.89844H7.08357C6.90717 9.89844 6.81897 9.98664 6.81897 10.163Z" fill="#232634"/>
</svg>
