<svg width="24" height="24" viewBox="0 0 24 24" fill="none" xmlns="http://www.w3.org/2000/svg">
<path d="M17 19.0002H20V5.00022H17V3.00022H21C21.2652 3.00022 21.5196 3.10557 21.7071 3.29311C21.8947 3.48064 22 3.735 22 4.00022V20.0002C22 20.2654 21.8947 20.5198 21.7071 20.7073C21.5196 20.8949 21.2652 21.0002 21 21.0002H17V19.0002ZM2.85902 2.87722L15.429 1.08222C15.5 1.07204 15.5723 1.07723 15.641 1.09744C15.7098 1.11765 15.7734 1.1524 15.8275 1.19935C15.8817 1.24629 15.9251 1.30433 15.9549 1.36952C15.9846 1.43472 16 1.50555 16 1.57722V22.4232C16 22.4948 15.9846 22.5655 15.9549 22.6306C15.9252 22.6957 15.8819 22.7537 15.8279 22.8007C15.7738 22.8476 15.7103 22.8824 15.6417 22.9026C15.5731 22.9229 15.5009 22.9282 15.43 22.9182L2.85802 21.1232C2.61964 21.0893 2.40152 20.9704 2.24371 20.7886C2.08591 20.6067 1.99903 20.374 1.99902 20.1332V3.86722C1.99903 3.62643 2.08591 3.39373 2.24371 3.21186C2.40152 3.02999 2.61964 2.91117 2.85802 2.87722H2.85902ZM4.00002 4.73522V19.2652L14 20.6942V3.30622L4.00002 4.73522ZM11 8.00022H13V16.0002H11L9.00002 14.0002L7.00002 16.0002H5.00002V8.00022H7.00002L7.01002 13.0002L9.00002 11.0002L11 12.9892V8.00022Z" fill="#232634"/>
</svg>
