<svg width="24" height="24" viewBox="0 0 24 24" fill="none" xmlns="http://www.w3.org/2000/svg">
<path d="M8.79838 7.41699C8.14503 7.9461 7.61765 8.61749 7.25538 9.38134C6.89311 10.1452 6.70525 10.9819 6.70574 11.8294C6.70835 13.8962 6.23932 15.9356 5.33532 17.7883M13.1323 21C14.4679 18.1328 15.3463 13.1247 15.1492 11.8294C14.9054 10.2274 14.1378 8.94725 12.2864 8.94725C10.165 8.94725 9.51854 11.1027 9.51854 12.0185M20.4792 17.2553C20.8246 15.4678 20.999 13.6508 20.9999 11.8294C20.9999 9.48772 20.0819 7.24188 18.4477 5.58606C16.8135 3.93023 14.5971 3 12.286 3C9.97496 3 7.75854 3.93023 6.12437 5.58606C4.49019 7.24188 3.57212 9.48766 3.57212 11.8294C3.57304 12.9906 3.37959 14.1437 3 15.2395M7.4717 19.6989C8.35497 18.1632 8.98301 16.4907 9.33071 14.7485M17.6794 14.9183C17.8059 13.8939 17.8684 12.8615 17.8663 11.8292C17.8663 10.3296 17.2784 8.89154 16.2319 7.83122C15.1855 6.77092 13.7662 6.17514 12.2864 6.17514C12.0533 6.17351 11.8203 6.18701 11.5889 6.21554M17.0993 18.0061C16.9519 18.5737 16.7846 19.1419 16.6079 19.6989M10.1766 20.5802C11.288 18.5726 12.2906 15.246 12.2906 11.8601" stroke="#232634" stroke-width="2" stroke-linecap="round" stroke-linejoin="round"/>
</svg>
