<svg width="24" height="24" viewBox="0 0 24 24" fill="none" xmlns="http://www.w3.org/2000/svg">
<path fill-rule="evenodd" clip-rule="evenodd" d="M21 5H12.414L10.414 3H3C2.73478 3 2.48043 3.10536 2.29289 3.29289C2.10536 3.48043 2 3.73478 2 4V20C2 20.2652 2.10536 20.5196 2.29289 20.7071C2.48043 20.8946 2.73478 21 3 21H21C21.2652 21 21.5196 20.8946 21.7071 20.7071C21.8946 20.5196 22 20.2652 22 20V6C22 5.73478 21.8946 5.48043 21.7071 5.29289C21.5196 5.10536 21.2652 5 21 5ZM10.182 9.1424L15.4675 12.0149C16.0045 12.3068 16.0291 13.0686 15.5121 13.3946L10.2266 16.7267C9.69392 17.0625 9 16.6797 9 16.0499V9.8453C9 9.23859 9.64894 8.85268 10.182 9.1424Z" fill="#232634"/>
</svg>
