<svg width="24" height="24" viewBox="0 0 24 24" fill="none" xmlns="http://www.w3.org/2000/svg">
<path d="M12.414 5H21C21.2652 5 21.5196 5.10536 21.7071 5.29289C21.8946 5.48043 22 5.73478 22 6V20C22 20.2652 21.8946 20.5196 21.7071 20.7071C21.5196 20.8946 21.2652 21 21 21H3C2.73478 21 2.48043 20.8946 2.29289 20.7071C2.10536 20.5196 2 20.2652 2 20V4C2 3.73478 2.10536 3.48043 2.29289 3.29289C2.48043 3.10536 2.73478 3 3 3H10.414L12.414 5ZM4 5V19H20V7H11.586L9.586 5H4Z" fill="#0F111A"/>
<path fill-rule="evenodd" clip-rule="evenodd" d="M8.48721 8.14148C8.78939 7.961 9.1642 7.95266 9.4741 8.11953L15.9741 11.6195C16.2889 11.789 16.4893 12.1137 16.4996 12.4711C16.5099 12.8286 16.3286 13.1643 16.0241 13.3517L9.5241 17.3517C9.21556 17.5415 8.82845 17.5497 8.5122 17.373C8.19594 17.1962 8 16.8623 8 16.5V9C8 8.64803 8.18504 8.32197 8.48721 8.14148ZM10 10.6742V14.7104L13.4981 12.5578L10 10.6742Z" fill="#232634"/>
</svg>
