<svg width="24" height="24" viewBox="0 0 24 24" fill="none" xmlns="http://www.w3.org/2000/svg">
<path d="M13.0598 8.11023L14.4748 9.52523C15.1249 10.1753 15.6405 10.947 15.9924 11.7963C16.3442 12.6456 16.5253 13.5559 16.5253 14.4752C16.5253 15.3945 16.3442 16.3049 15.9924 17.1542C15.6405 18.0035 15.1249 18.7752 14.4748 19.4252L14.1208 19.7782C12.8079 21.0911 11.0274 21.8286 9.17077 21.8286C7.31416 21.8286 5.53359 21.0911 4.22077 19.7782C2.90795 18.4654 2.17041 16.6848 2.17041 14.8282C2.17041 12.9716 2.90795 11.1911 4.22077 9.87823L5.63577 11.2932C5.16814 11.7568 4.79667 12.3081 4.5427 12.9156C4.28872 13.5231 4.15724 14.1748 4.1558 14.8333C4.15435 15.4917 4.28298 16.144 4.53429 16.7526C4.78561 17.3612 5.15465 17.9142 5.62025 18.3798C6.08585 18.8453 6.63882 19.2144 7.24743 19.4657C7.85603 19.717 8.50828 19.8456 9.16673 19.8442C9.82518 19.8428 10.4769 19.7113 11.0844 19.4573C11.6919 19.2033 12.2432 18.8319 12.7068 18.3642L13.0608 18.0102C13.9981 17.0726 14.5247 15.8011 14.5247 14.4752C14.5247 13.1494 13.9981 11.8779 13.0608 10.9402L11.6458 9.52523L13.0608 8.11123L13.0598 8.11023ZM19.7778 14.1212L18.3638 12.7072C18.8314 12.2437 19.2029 11.6923 19.4568 11.0848C19.7108 10.4773 19.8423 9.82565 19.8437 9.1672C19.8452 8.50875 19.7166 7.8565 19.4652 7.24789C19.2139 6.63928 18.8449 6.08631 18.3793 5.62071C17.9137 5.15512 17.3607 4.78607 16.7521 4.53476C16.1435 4.28345 15.4913 4.15482 14.8328 4.15626C14.1744 4.1577 13.5227 4.28919 12.9152 4.54316C12.3077 4.79714 11.7563 5.1686 11.2928 5.63623L10.9388 5.99023C10.0014 6.92787 9.47484 8.19941 9.47484 9.52523C9.47484 10.8511 10.0014 12.1226 10.9388 13.0602L12.3538 14.4752L10.9388 15.8892L9.52477 14.4752C8.87468 13.8252 8.359 13.0535 8.00717 12.2042C7.65535 11.3549 7.47426 10.4445 7.47426 9.52523C7.47426 8.60592 7.65535 7.69561 8.00717 6.84628C8.359 5.99696 8.87468 5.22525 9.52477 4.57523L9.87877 4.22223C11.1916 2.90941 12.9722 2.17188 14.8288 2.17188C16.6854 2.17188 18.4659 2.90941 19.7788 4.22223C21.0916 5.53505 21.8291 7.31562 21.8291 9.17223C21.8291 11.0288 21.0916 12.8094 19.7788 14.1222L19.7778 14.1212Z" fill="#232634"/>
</svg>
