<svg width="24" height="24" viewBox="0 0 24 24" fill="none" xmlns="http://www.w3.org/2000/svg">
<path d="M18.364 15.5362L16.95 14.1202L18.364 12.7062C18.8316 12.2427 19.2031 11.6913 19.4571 11.0838C19.7111 10.4763 19.8425 9.82465 19.844 9.1662C19.8454 8.50775 19.7168 7.8555 19.4655 7.24689C19.2142 6.63828 18.8451 6.08531 18.3795 5.61971C17.9139 5.15412 17.361 4.78507 16.7524 4.53376C16.1437 4.28245 15.4915 4.15382 14.833 4.15526C14.1746 4.1567 13.5229 4.28819 12.9154 4.54216C12.3079 4.79614 11.7566 5.1676 11.293 5.63523L9.87901 7.05023L8.46401 5.63623L9.88001 4.22223C11.1928 2.90941 12.9734 2.17188 14.83 2.17188C16.6866 2.17188 18.4672 2.90941 19.78 4.22223C21.0928 5.53505 21.8304 7.31562 21.8304 9.17223C21.8304 11.0288 21.0928 12.8094 19.78 14.1222L18.365 15.5362H18.364ZM15.536 18.3642L14.121 19.7782C12.8082 21.0911 11.0276 21.8286 9.17101 21.8286C7.3144 21.8286 5.53383 21.0911 4.22101 19.7782C2.90819 18.4654 2.17065 16.6848 2.17065 14.8282C2.17065 12.9716 2.90819 11.1911 4.22101 9.87823L5.63601 8.46423L7.05001 9.88023L5.63601 11.2942C5.16838 11.7578 4.79692 12.3091 4.54294 12.9166C4.28896 13.5241 4.15748 14.1758 4.15604 14.8343C4.1546 15.4927 4.28323 16.145 4.53454 16.7536C4.78585 17.3622 5.1549 17.9152 5.62049 18.3808C6.08609 18.8463 6.63906 19.2154 7.24767 19.4667C7.85628 19.718 8.50853 19.8466 9.16698 19.8452C9.82543 19.8438 10.4771 19.7123 11.0846 19.4583C11.6921 19.2043 12.2435 18.8329 12.707 18.3652L14.121 16.9512L15.536 18.3652V18.3642ZM14.828 7.75723L16.243 9.17223L9.17201 16.2422L7.75701 14.8282L14.828 7.75823V7.75723Z" fill="#232634"/>
</svg>
