<svg width="24" height="24" viewBox="0 0 24 24" fill="none" xmlns="http://www.w3.org/2000/svg">
<path d="M17.657 14.8279L16.243 13.4139L17.657 11.9999C18.0285 11.6285 18.3231 11.1875 18.5241 10.7022C18.7252 10.2169 18.8286 9.6967 18.8286 9.1714C18.8286 8.6461 18.7252 8.12594 18.5241 7.64063C18.3231 7.15531 18.0285 6.71435 17.657 6.3429C17.2856 5.97146 16.8446 5.67681 16.3593 5.47579C15.874 5.27477 15.3538 5.1713 14.8285 5.1713C14.3032 5.1713 13.7831 5.27477 13.2978 5.47579C12.8124 5.67681 12.3715 5.97146 12 6.3429L10.586 7.7569L9.17202 6.3429L10.586 4.9289C11.7143 3.81882 13.2356 3.19956 14.8184 3.206C16.4012 3.21245 17.9174 3.84408 19.0366 4.96331C20.1558 6.08255 20.7875 7.5987 20.7939 9.18152C20.8004 10.7643 20.1811 12.2856 19.071 13.4139L17.657 14.8279ZM14.828 17.6569L13.414 19.0709C12.8585 19.6355 12.1968 20.0845 11.4669 20.3921C10.737 20.6997 9.95344 20.8597 9.16141 20.8629C8.36937 20.8661 7.58453 20.7125 6.85216 20.4109C6.1198 20.1093 5.45439 19.6657 4.89433 19.1056C4.33427 18.5455 3.89064 17.8801 3.58903 17.1478C3.28742 16.4154 3.1338 15.6306 3.13702 14.8385C3.14025 14.0465 3.30026 13.2629 3.60782 12.533C3.91539 11.8032 4.36442 11.1414 4.92902 10.5859L6.34302 9.1719L7.75702 10.5859L6.34302 11.9999C5.97158 12.3713 5.67694 12.8123 5.47591 13.2976C5.27489 13.7829 5.17142 14.3031 5.17142 14.8284C5.17142 15.3537 5.27489 15.8739 5.47591 16.3592C5.67694 16.8445 5.97158 17.2855 6.34302 17.6569C6.71447 18.0283 7.15544 18.323 7.64075 18.524C8.12607 18.725 8.64622 18.8285 9.17152 18.8285C9.69683 18.8285 10.217 18.725 10.7023 18.524C11.1876 18.323 11.6286 18.0283 12 17.6569L13.414 16.2429L14.828 17.6569ZM14.828 7.7569L16.243 9.1719L9.17202 16.2419L7.75702 14.8279L14.828 7.7579V7.7569ZM5.77502 2.2929L7.70702 1.7749L8.74202 5.6399L6.81102 6.1579L5.77502 2.2939V2.2929ZM15.258 18.3609L17.189 17.8429L18.225 21.7069L16.293 22.2249L15.258 18.3609ZM2.29302 5.7749L6.15702 6.8109L5.63902 8.7419L1.77502 7.7069L2.29302 5.7749ZM18.361 15.2579L22.225 16.2929L21.707 18.2249L17.843 17.1889L18.361 15.2579Z" fill="#232634"/>
</svg>
