<svg width="24" height="24" viewBox="0 0 24 24" fill="none" xmlns="http://www.w3.org/2000/svg">
<path fill-rule="evenodd" clip-rule="evenodd" d="M12.0001 0.318359C11.9198 0.318359 11.8397 0.319246 11.7599 0.32101C11.3834 0.329325 11.085 0.641253 11.0933 1.01772C11.1016 1.39418 11.4135 1.69263 11.79 1.68431C11.8598 1.68277 11.9298 1.682 12.0001 1.682C12.0703 1.682 12.1403 1.68277 12.2101 1.68431C12.5866 1.69263 12.8985 1.39418 12.9068 1.01772C12.9151 0.641253 12.6167 0.329325 12.2402 0.32101C12.1604 0.319246 12.0803 0.318359 12.0001 0.318359ZM15.0729 0.767146C14.7122 0.658978 14.3322 0.863686 14.224 1.22437C14.1158 1.58506 14.3205 1.96514 14.6812 2.07331C14.815 2.11344 14.9476 2.1565 15.0788 2.20241C15.4342 2.32678 15.8232 2.13947 15.9475 1.78405C16.0719 1.42862 15.8846 1.03967 15.5292 0.915298C15.3786 0.862611 15.2265 0.813198 15.0729 0.767146ZM9.31889 2.07331C9.67957 1.96514 9.88428 1.58506 9.77611 1.22437C9.66795 0.863687 9.28786 0.658979 8.92718 0.767147C8.77361 0.813199 8.62151 0.862612 8.47094 0.915299C8.11551 1.03967 7.9282 1.42862 8.05257 1.78405C8.17694 2.13947 8.5659 2.32678 8.92132 2.20241C9.05253 2.1565 9.18508 2.11344 9.31889 2.07331ZM18.0841 2.21924C17.7747 2.00452 17.3499 2.08124 17.1352 2.39058C16.9205 2.69993 16.9972 3.12476 17.3065 3.33947C17.4212 3.41903 17.5339 3.50111 17.6448 3.58561C17.9442 3.81394 18.372 3.75631 18.6004 3.45687C18.8287 3.15744 18.7711 2.7296 18.4716 2.50127C18.3447 2.40445 18.2154 2.31041 18.0841 2.21924ZM6.69356 3.33947C7.00291 3.12476 7.07962 2.69993 6.86491 2.39058C6.6502 2.08124 6.22536 2.00452 5.91602 2.21924C5.78466 2.31041 5.65546 2.40445 5.52849 2.50127C5.22906 2.7296 5.17142 3.15744 5.39975 3.45687C5.62809 3.75631 6.05592 3.81394 6.35536 3.58561C6.46617 3.50111 6.57894 3.41903 6.69356 3.33947ZM20.499 4.52861C20.2706 4.22918 19.8428 4.17154 19.5434 4.39988C19.2439 4.62821 19.1863 5.05605 19.4146 5.35548C19.4991 5.4663 19.5812 5.57906 19.6608 5.69369C19.8755 6.00303 20.3003 6.07974 20.6096 5.86503C20.919 5.65032 20.9957 5.22548 20.781 4.91614C20.6898 4.78478 20.5958 4.65558 20.499 4.52861ZM4.58549 5.35548C4.81382 5.05605 4.75618 4.62821 4.45675 4.39988C4.15732 4.17154 3.72948 4.22918 3.50115 4.52861C3.40433 4.65558 3.31029 4.78479 3.21912 4.91614C3.0044 5.22549 3.08112 5.65032 3.39046 5.86503C3.6998 6.07975 4.12464 6.00303 4.33935 5.69369C4.41891 5.57906 4.50098 5.4663 4.58549 5.35548ZM22.0849 7.47106C21.9606 7.11563 21.5716 6.92832 21.2162 7.0527C20.8608 7.17707 20.6735 7.56602 20.7978 7.92144C20.8437 8.05265 20.8868 8.1852 20.9269 8.31901C21.0351 8.6797 21.4152 8.8844 21.7759 8.77624C22.1365 8.66807 22.3413 8.28799 22.2331 7.9273C22.187 7.77374 22.1376 7.62163 22.0849 7.47106ZM3.20229 7.92145C3.32666 7.56602 3.13935 7.17707 2.78392 7.0527C2.4285 6.92833 2.03955 7.11563 1.91518 7.47106C1.86249 7.62163 1.81308 7.77374 1.76702 7.9273C1.65886 8.28799 1.86356 8.66807 2.22425 8.77624C2.58494 8.88441 2.96502 8.6797 3.07319 8.31901C3.11332 8.1852 3.15638 8.05265 3.20229 7.92145ZM22.6792 10.76C22.6709 10.3835 22.359 10.0851 21.9825 10.0934C21.606 10.1017 21.3076 10.4136 21.3159 10.7901C21.3175 10.8599 21.3182 10.93 21.3182 11.0002C21.3182 11.0704 21.3175 11.1404 21.3159 11.2102C21.3076 11.5867 21.606 11.8986 21.9825 11.907C22.359 11.9153 22.6709 11.6168 22.6792 11.2404C22.681 11.1605 22.6819 11.0804 22.6819 11.0002C22.6819 10.9199 22.681 10.8399 22.6792 10.76ZM2.68419 10.7901C2.69251 10.4136 2.39406 10.1017 2.0176 10.0934C1.64113 10.0851 1.3292 10.3835 1.32089 10.76C1.31912 10.8399 1.31824 10.9199 1.31824 11.0002C1.31824 11.0804 1.31912 11.1605 1.32089 11.2404C1.3292 11.6168 1.64113 11.9153 2.0176 11.907C2.39406 11.8986 2.69251 11.5867 2.68419 11.2102C2.68265 11.1404 2.68187 11.0704 2.68187 11.0002C2.68187 10.93 2.68265 10.8599 2.68419 10.7901ZM22.2331 14.0731C22.3413 13.7124 22.1365 13.3323 21.7759 13.2241C21.4152 13.1159 21.0351 13.3207 20.9269 13.6813C20.8868 13.8152 20.8437 13.9477 20.7978 14.0789C20.6735 14.4343 20.8608 14.8233 21.2162 14.9477C21.5716 15.072 21.9606 14.8847 22.0849 14.5293C22.1376 14.3787 22.187 14.2266 22.2331 14.0731ZM3.07319 13.6813C2.96502 13.3207 2.58494 13.116 2.22425 13.2241C1.86356 13.3323 1.65886 13.7124 1.76702 14.0731C1.81308 14.2266 1.86249 14.3787 1.91518 14.5293C2.03955 14.8847 2.4285 15.072 2.78393 14.9477C3.13935 14.8233 3.32666 14.4343 3.20229 14.0789C3.15638 13.9477 3.11332 13.8152 3.07319 13.6813ZM20.781 17.0842C20.9957 16.7749 20.919 16.35 20.6097 16.1353C20.3003 15.9206 19.8755 15.9973 19.6608 16.3067C19.5812 16.4213 19.4991 16.5341 19.4146 16.6449C19.1863 16.9443 19.2439 17.3721 19.5434 17.6005C19.8428 17.8288 20.2706 17.7712 20.499 17.4717C20.5958 17.3448 20.6898 17.2156 20.781 17.0842ZM4.33935 16.3067C4.12464 15.9973 3.6998 15.9206 3.39046 16.1353C3.08112 16.35 3.0044 16.7749 3.21912 17.0842C3.31029 17.2156 3.40433 17.3448 3.50115 17.4717C3.72948 17.7712 4.15732 17.8288 4.45675 17.6005C4.75618 17.3721 4.81382 16.9443 4.58549 16.6449C4.50099 16.5341 4.41891 16.4213 4.33935 16.3067ZM6.35536 18.4147C6.05592 18.1864 5.62809 18.244 5.39975 18.5435C5.17142 18.8429 5.22906 19.2708 5.52849 19.4991C5.65546 19.5959 5.78466 19.6899 5.91602 19.7811C6.22536 19.9958 6.6502 19.9191 6.86491 19.6098C7.07962 19.3004 7.00291 18.8756 6.69357 18.6609C6.57894 18.5813 6.46618 18.4992 6.35536 18.4147ZM18.4716 19.4991C18.7711 19.2708 18.8287 18.8429 18.6004 18.5435C18.372 18.244 17.9442 18.1864 17.6448 18.4147C17.5339 18.4992 17.4212 18.5813 17.3065 18.6609C16.9972 18.8756 16.9205 19.3004 17.1352 19.6098C17.3499 19.9191 17.7747 19.9958 18.0841 19.7811C18.2154 19.6899 18.3447 19.5959 18.4716 19.4991ZM8.92132 19.7979C8.5659 19.6736 8.17695 19.8609 8.05258 20.2163C7.92821 20.5717 8.11551 20.9607 8.47094 21.0851C8.62151 21.1377 8.77362 21.1872 8.92718 21.2332C9.28787 21.3414 9.66795 21.1367 9.77612 20.776C9.88428 20.4153 9.67958 20.0352 9.31889 19.927C9.18508 19.8869 9.05253 19.8439 8.92132 19.7979ZM15.5292 21.0851C15.8846 20.9607 16.0719 20.5717 15.9475 20.2163C15.8232 19.8609 15.4342 19.6736 15.0788 19.7979C14.9476 19.8439 14.815 19.8869 14.6812 19.927C14.3205 20.0352 14.1158 20.4153 14.224 20.776C14.3322 21.1367 14.7122 21.3414 15.0729 21.2332C15.2265 21.1872 15.3786 21.1377 15.5292 21.0851ZM11.79 20.316C11.4135 20.3077 11.1016 20.6062 11.0933 20.9826C11.085 21.3591 11.3834 21.671 11.7599 21.6793C11.8397 21.6811 11.9198 21.682 12.0001 21.682C12.0803 21.682 12.1604 21.6811 12.2402 21.6793C12.6167 21.671 12.9151 21.3591 12.9068 20.9826C12.8985 20.6062 12.5866 20.3077 12.2101 20.316C12.1403 20.3176 12.0703 20.3184 12.0001 20.3184C11.9298 20.3184 11.8598 20.3176 11.79 20.316ZM12.0001 16.0004C14.7615 16.0004 17.0001 13.7618 17.0001 11.0004C17.0001 8.23893 14.7615 6.00036 12.0001 6.00036C9.23869 6.00036 7.00011 8.23893 7.00011 11.0004C7.00011 13.7618 9.23869 16.0004 12.0001 16.0004ZM12.0001 17.364C15.5147 17.364 18.3637 14.5149 18.3637 11.0004C18.3637 7.48582 15.5147 4.63672 12.0001 4.63672C8.48557 4.63672 5.63647 7.48582 5.63647 11.0004C5.63647 14.5149 8.48557 17.364 12.0001 17.364ZM12 12.8183C13.0042 12.8183 13.8182 12.0043 13.8182 11.0001C13.8182 9.99598 13.0042 9.18195 12 9.18195C10.9959 9.18195 10.1818 9.99598 10.1818 11.0001C10.1818 12.0043 10.9959 12.8183 12 12.8183ZM12 14.6365C14.0083 14.6365 15.6364 13.0084 15.6364 11.0001C15.6364 8.99183 14.0083 7.36377 12 7.36377C9.9917 7.36377 8.36365 8.99183 8.36365 11.0001C8.36365 13.0084 9.9917 14.6365 12 14.6365Z" fill="#232634"/>
</svg>
