<svg width="24" height="24" viewBox="0 0 24 24" fill="none" xmlns="http://www.w3.org/2000/svg">
<g clip-path="url(#clip0_18_12807)">
<path d="M11 19.945C8.71595 19.6867 6.61728 18.5645 5.13428 16.8083C3.65127 15.0522 2.89632 12.7952 3.02421 10.5002C3.1521 8.20518 4.15315 6.04606 5.82209 4.46555C7.49103 2.88503 9.7014 2.00289 12 2C14.3014 1.99833 16.516 2.87834 18.1885 4.45914C19.8611 6.03994 20.8645 8.20142 20.9926 10.4992C21.1206 12.7971 20.3635 15.0567 18.877 16.8135C17.3904 18.5704 15.2873 19.691 13 19.945V24H11V19.945ZM12 18C12.9192 18 13.8295 17.8189 14.6787 17.4672C15.528 17.1154 16.2997 16.5998 16.9497 15.9497C17.5997 15.2997 18.1153 14.5281 18.4671 13.6788C18.8189 12.8295 19 11.9193 19 11C19 10.0807 18.8189 9.1705 18.4671 8.32122C18.1153 7.47194 17.5997 6.70026 16.9497 6.05025C16.2997 5.40024 15.528 4.88463 14.6787 4.53285C13.8295 4.18106 12.9192 4 12 4C10.1434 4 8.36297 4.7375 7.05021 6.05025C5.73746 7.36301 4.99996 9.14349 4.99996 11C4.99996 12.8565 5.73746 14.637 7.05021 15.9497C8.36297 17.2625 10.1434 18 12 18Z" fill="#232634"/>
</g>
<defs>
<clipPath id="clip0_18_12807">
<rect width="24" height="24" fill="white"/>
</clipPath>
</defs>
</svg>
