<svg width="24" height="24" viewBox="0 0 24 24" fill="none" xmlns="http://www.w3.org/2000/svg">
<path d="M16.4251 17.8391C15.3702 18.4361 14.2049 18.8124 13.0001 18.9451V23.0001H11.0001V18.9451C8.9712 18.7176 7.07985 17.8075 5.63624 16.3639C4.19263 14.9203 3.28248 13.0289 3.05507 11.0001H5.07007C5.22597 12.0795 5.63186 13.1075 6.25538 14.0023C6.87891 14.8971 7.70284 15.6339 8.66149 16.1539C9.62014 16.6739 10.687 16.9628 11.7771 16.9976C12.8671 17.0323 13.9502 16.812 14.9401 16.3541L13.3891 14.8041C12.6443 15.0194 11.8596 15.0587 11.097 14.9186C10.3344 14.7786 9.61485 14.4631 8.99516 13.9972C8.37547 13.5312 7.87264 12.9275 7.52638 12.2338C7.18013 11.5401 6.99994 10.7754 7.00007 10.0001V8.41405L1.39307 2.80805L2.80807 1.39305L22.6071 21.1931L21.1921 22.6071L16.4251 17.8391ZM19.3751 15.1601L17.9321 13.7181C18.4411 12.9081 18.7881 11.9881 18.9291 11.0001H20.9451C20.78 12.4967 20.24 13.9275 19.3751 15.1601ZM16.4651 12.2511L7.68507 3.47105C8.23996 2.52318 9.09152 1.78439 10.1082 1.3688C11.1249 0.953218 12.2502 0.883968 13.3101 1.17175C14.3701 1.45953 15.3058 2.08833 15.9728 2.96101C16.6397 3.8337 17.0007 4.9017 17.0001 6.00005L17.0011 10.0001C17.0022 10.7819 16.8193 11.553 16.4671 12.2511H16.4651Z" fill="#232634"/>
</svg>
