<svg width="24" height="24" viewBox="0 0 24 24" fill="none" xmlns="http://www.w3.org/2000/svg">
<path d="M16.4251 17.8391C15.3702 18.4361 14.2049 18.8124 13.0001 18.9451V23.0001H11.0001V18.9451C8.9712 18.7176 7.07985 17.8075 5.63624 16.3639C4.19263 14.9203 3.28248 13.0289 3.05507 11.0001H5.07007C5.22597 12.0795 5.63186 13.1075 6.25538 14.0023C6.87891 14.8971 7.70284 15.6339 8.66149 16.1539C9.62014 16.6739 10.687 16.9628 11.7771 16.9976C12.8671 17.0323 13.9502 16.812 14.9401 16.3541L13.3891 14.8041C12.6443 15.0194 11.8596 15.0587 11.097 14.9186C10.3344 14.7786 9.61485 14.4631 8.99516 13.9972C8.37547 13.5312 7.87264 12.9275 7.52638 12.2338C7.18013 11.5401 6.99994 10.7754 7.00007 10.0001V8.41405L1.39307 2.80805L2.80807 1.39305L22.6071 21.1931L21.1921 22.6071L16.4251 17.8391ZM9.03307 10.4471L11.5531 12.9671C10.9189 12.8713 10.3321 12.5749 9.87866 12.1215C9.42518 11.668 9.12884 11.0812 9.03307 10.4471ZM19.3751 15.1601L17.9321 13.7181C18.4411 12.9081 18.7881 11.9881 18.9291 11.0001H20.9451C20.78 12.4967 20.24 13.9275 19.3751 15.1601ZM16.4651 12.2511L14.9171 10.7031C14.9711 10.4771 15.0001 10.2431 15.0001 10.0001V6.00005C15.0008 5.29476 14.753 4.61177 14.3001 4.07102C13.8473 3.53028 13.2185 3.16636 12.524 3.04318C11.8296 2.91999 11.1139 3.04543 10.5028 3.39744C9.89159 3.74946 9.42399 4.30555 9.18207 4.96805L7.68607 3.47105C8.24117 2.52367 9.0927 1.78536 10.1092 1.37011C11.1257 0.954861 12.2506 0.885767 13.3103 1.17349C14.3699 1.46122 15.3054 2.08977 15.9723 2.9621C16.6392 3.83443 17.0003 4.90202 17.0001 6.00005V10.0001C17.0012 10.7819 16.8183 11.553 16.4661 12.2511H16.4651Z" fill="#232634"/>
</svg>
