<svg width="24" height="24" viewBox="0 0 24 24" fill="none" xmlns="http://www.w3.org/2000/svg">
<path fill-rule="evenodd" clip-rule="evenodd" d="M17.9241 13.3113C19.3649 12.3027 20 11.1012 20 10C20 8.89875 19.3649 7.69728 17.9241 6.68872C16.4897 5.68458 14.4014 5 12 5C9.5986 5 7.51034 5.68458 6.07586 6.68872C4.63506 7.69728 4 8.89875 4 10C4 11.1012 4.63506 12.3027 6.07586 13.3113C7.51034 14.3154 9.5986 15 12 15C14.4014 15 16.4897 14.3154 17.9241 13.3113ZM12 17C17.5228 17 22 13.866 22 10C22 6.13401 17.5228 3 12 3C6.47715 3 2 6.13401 2 10C2 13.866 6.47715 17 12 17Z" fill="#232634"/>
<path fill-rule="evenodd" clip-rule="evenodd" d="M4.55406 17.1675C5.04941 17.4972 5.65269 17.8017 6.35069 18.0639C7.89569 18.6443 9.85246 19 12 19C14.1475 19 16.1043 18.6443 17.6493 18.0639C18.3473 17.8017 18.9506 17.4972 19.4459 17.1675L20.5541 18.8325C19.912 19.2598 19.1685 19.6296 18.3526 19.9361C16.5547 20.6116 14.3558 21 12 21C9.64424 21 7.44534 20.6116 5.64736 19.9361C4.83146 19.6296 4.08796 19.2598 3.44594 18.8325L4.55406 17.1675Z" fill="#232634"/>
<path fill-rule="evenodd" clip-rule="evenodd" d="M10.0604 9.5C10.1104 9.45754 10.1926 9.40039 10.3259 9.33377C10.7027 9.14538 11.2932 9 12 9C12.7068 9 13.2973 9.14538 13.6741 9.33377C13.8074 9.40039 13.8896 9.45754 13.9396 9.5C13.8896 9.54246 13.8074 9.59961 13.6741 9.66623C13.2973 9.85462 12.7068 10 12 10C11.2932 10 10.7027 9.85462 10.3259 9.66623C10.1926 9.59961 10.1104 9.54246 10.0604 9.5ZM9.43147 7.54491C10.1405 7.19041 11.05 7 12 7C12.95 7 13.8595 7.19041 14.5685 7.54491C15.2177 7.86951 16 8.50296 16 9.5C16 10.497 15.2177 11.1305 14.5685 11.4551C13.8595 11.8096 12.95 12 12 12C11.05 12 10.1405 11.8096 9.43147 11.4551C8.78227 11.1305 8 10.497 8 9.5C8 8.50296 8.78227 7.86951 9.43147 7.54491Z" fill="#232634"/>
</svg>
