<svg width="24" height="24" viewBox="0 0 24 24" fill="none" xmlns="http://www.w3.org/2000/svg">
<path d="M12 22C6.477 22 2 17.523 2 12C2 6.477 6.477 2 12 2C17.523 2 22 6.477 22 12C22 17.523 17.523 22 12 22ZM12 20C14.1217 20 16.1566 19.1571 17.6569 17.6569C19.1571 16.1566 20 14.1217 20 12C20 9.87827 19.1571 7.84344 17.6569 6.34315C16.1566 4.84285 14.1217 4 12 4C9.87827 4 7.84344 4.84285 6.34315 6.34315C4.84285 7.84344 4 9.87827 4 12C4 14.1217 4.84285 16.1566 6.34315 17.6569C7.84344 19.1571 9.87827 20 12 20Z" fill="#232634"/>
<path d="M6 12C6 12.7333 6.6 13.3333 7.33333 13.3333C8.06667 13.3333 8.66667 12.7333 8.66667 12C8.66667 11.2667 8.06667 10.6667 7.33333 10.6667C6.6 10.6667 6 11.2667 6 12ZM15.3333 12C15.3333 12.7333 15.9333 13.3333 16.6667 13.3333C17.4 13.3333 18 12.7333 18 12C18 11.2667 17.4 10.6667 16.6667 10.6667C15.9333 10.6667 15.3333 11.2667 15.3333 12ZM10.6667 12C10.6667 12.7333 11.2667 13.3333 12 13.3333C12.7333 13.3333 13.3333 12.7333 13.3333 12C13.3333 11.2667 12.7333 10.6667 12 10.6667C11.2667 10.6667 10.6667 11.2667 10.6667 12Z" fill="#232634"/>
</svg>
