<svg width="24" height="24" viewBox="0 0 24 24" fill="none" xmlns="http://www.w3.org/2000/svg">
<path d="M10.9001 2.1001L20.7991 3.5151L22.2131 13.4151L13.0211 22.6071C12.8336 22.7946 12.5793 22.8999 12.3141 22.8999C12.0489 22.8999 11.7946 22.7946 11.6071 22.6071L1.70709 12.7071C1.51962 12.5196 1.41431 12.2653 1.41431 12.0001C1.41431 11.7349 1.51962 11.4806 1.70709 11.2931L10.9001 2.1001ZM13.7281 10.5861C13.9138 10.7718 14.1344 10.9191 14.377 11.0195C14.6197 11.12 14.8798 11.1717 15.1424 11.1716C15.4051 11.1716 15.6652 11.1198 15.9078 11.0193C16.1504 10.9187 16.3709 10.7714 16.5566 10.5856C16.7423 10.3998 16.8896 10.1793 16.99 9.93666C17.0905 9.69398 17.1422 9.43389 17.1421 9.17124C17.1421 8.90859 17.0903 8.64852 16.9898 8.40588C16.8892 8.16324 16.7418 7.94279 16.5561 7.7571C16.3703 7.57141 16.1498 7.42412 15.9072 7.32366C15.6645 7.22319 15.4044 7.1715 15.1417 7.17155C14.6113 7.17164 14.1026 7.38245 13.7276 7.7576C13.3526 8.13275 13.1419 8.64151 13.142 9.17195C13.1421 9.7024 13.3529 10.2111 13.7281 10.5861Z" fill="#232634"/>
</svg>
