<svg width="24" height="24" viewBox="0 0 24 24" fill="none" xmlns="http://www.w3.org/2000/svg">
<path d="M8 20.0002V21.9322C8.00015 22.0273 7.97319 22.1205 7.92227 22.2008C7.87134 22.2811 7.79858 22.3452 7.7125 22.3856C7.62642 22.426 7.53061 22.4411 7.43629 22.4289C7.34197 22.4168 7.25307 22.3781 7.18 22.3172L3.06 18.8842C2.98098 18.8183 2.92421 18.7296 2.89744 18.6303C2.87067 18.5309 2.8752 18.4257 2.91042 18.3291C2.94563 18.2324 3.00982 18.1489 3.09421 18.0901C3.17861 18.0312 3.27911 17.9998 3.382 18.0002H18C18.5304 18.0002 19.0391 17.7895 19.4142 17.4144C19.7893 17.0393 20 16.5306 20 16.0002V8.0002H22V16.0002C22 17.0611 21.5786 18.0785 20.8284 18.8286C20.0783 19.5788 19.0609 20.0002 18 20.0002H8ZM16 4.0002V2.0682C15.9998 1.9731 16.0268 1.87994 16.0777 1.79963C16.1287 1.71932 16.2014 1.6552 16.2875 1.61479C16.3736 1.57437 16.4694 1.55934 16.5637 1.57146C16.658 1.58358 16.7469 1.62234 16.82 1.6832L20.94 5.1162C21.019 5.18204 21.0757 5.27062 21.1025 5.36987C21.1293 5.46912 21.1248 5.57422 21.0898 5.67086C21.0547 5.76749 20.9906 5.85096 20.9064 5.90989C20.8222 5.96882 20.7218 6.00036 20.619 6.0002H6C5.46957 6.0002 4.96086 6.21091 4.58579 6.58598C4.21071 6.96106 4 7.46976 4 8.0002V16.0002H2V8.0002C2 6.93933 2.42143 5.92191 3.17157 5.17177C3.92172 4.42162 4.93913 4.0002 6 4.0002H16ZM11 8.0002H13V16.0002H11V10.0002H9V9.0002L11 8.0002Z" fill="#232634"/>
</svg>
