<svg width="24" height="24" viewBox="0 0 24 24" fill="none" xmlns="http://www.w3.org/2000/svg">
<path d="M8.498 20.0001H15.502C14.8404 21.5824 13.5823 22.8405 12 23.5021C10.4177 22.8405 9.15956 21.5824 8.498 20.0001ZM18 14.8051L20 17.0731V19.0001H4V17.0731L6 14.8051V9.00008C6 5.51708 8.504 2.55308 12 1.45508C15.496 2.55308 18 5.51708 18 9.00008V14.8051ZM12 11.0001C12.5304 11.0001 13.0391 10.7894 13.4142 10.4143C13.7893 10.0392 14 9.53051 14 9.00008C14 8.46965 13.7893 7.96094 13.4142 7.58586C13.0391 7.21079 12.5304 7.00008 12 7.00008C11.4696 7.00008 10.9609 7.21079 10.5858 7.58586C10.2107 7.96094 10 8.46965 10 9.00008C10 9.53051 10.2107 10.0392 10.5858 10.4143C10.9609 10.7894 11.4696 11.0001 12 11.0001Z" fill="#232634"/>
</svg>
