<svg width="24" height="24" viewBox="0 0 24 24" fill="none" xmlns="http://www.w3.org/2000/svg">
<path d="M12 14.1209L9.68296 16.4379C10.0454 17.2925 10.0992 18.2466 9.83534 19.1366C9.57145 20.0266 9.00623 20.7971 8.23654 21.316C7.46686 21.835 6.54064 22.0701 5.61663 21.981C4.69262 21.892 3.82835 21.4843 3.17195 20.8279C2.51554 20.1715 2.10788 19.3072 2.01882 18.3832C1.92977 17.4592 2.16486 16.533 2.68382 15.7633C3.20277 14.9936 3.97327 14.4284 4.86327 14.1645C5.75326 13.9006 6.70733 13.9545 7.56196 14.3169L9.87996 11.9999L4.20996 6.33288C4.02416 6.14715 3.87677 5.92663 3.7762 5.68393C3.67564 5.44123 3.62389 5.18109 3.62389 4.91838C3.62389 4.65566 3.67564 4.39552 3.7762 4.15282C3.87677 3.91012 4.02416 3.6896 4.20996 3.50388L4.91796 2.79688L12 9.87988L19.081 2.79788L19.789 3.50488C19.9748 3.6906 20.1222 3.91112 20.2227 4.15382C20.3233 4.39652 20.375 4.65666 20.375 4.91937C20.375 5.18209 20.3233 5.44222 20.2227 5.68493C20.1222 5.92763 19.9748 6.14815 19.789 6.33388L14.12 11.9999L16.437 14.3169C17.2916 13.9545 18.2457 13.9006 19.1357 14.1645C20.0256 14.4284 20.7961 14.9936 21.3151 15.7633C21.8341 16.533 22.0692 17.4592 21.9801 18.3832C21.891 19.3072 21.4834 20.1715 20.827 20.8279C20.1706 21.4843 19.3063 21.892 18.3823 21.981C17.4583 22.0701 16.5321 21.835 15.7624 21.316C14.9927 20.7971 14.4275 20.0266 14.1636 19.1366C13.8997 18.2466 13.9536 17.2925 14.316 16.4379L12 14.1199V14.1209ZM5.99996 19.9999C6.53039 19.9999 7.0391 19.7892 7.41417 19.4141C7.78925 19.039 7.99996 18.5303 7.99996 17.9999C7.99996 17.4694 7.78925 16.9607 7.41417 16.5857C7.0391 16.2106 6.53039 15.9999 5.99996 15.9999C5.46953 15.9999 4.96082 16.2106 4.58575 16.5857C4.21067 16.9607 3.99996 17.4694 3.99996 17.9999C3.99996 18.5303 4.21067 19.039 4.58575 19.4141C4.96082 19.7892 5.46953 19.9999 5.99996 19.9999ZM18 19.9999C18.5304 19.9999 19.0391 19.7892 19.4142 19.4141C19.7892 19.039 20 18.5303 20 17.9999C20 17.4694 19.7892 16.9607 19.4142 16.5857C19.0391 16.2106 18.5304 15.9999 18 15.9999C17.4695 15.9999 16.9608 16.2106 16.5857 16.5857C16.2107 16.9607 16 17.4694 16 17.9999C16 18.5303 16.2107 19.039 16.5857 19.4141C16.9608 19.7892 17.4695 19.9999 18 19.9999Z" fill="#232634"/>
</svg>
