<svg width="24" height="24" viewBox="0 0 24 24" fill="none" xmlns="http://www.w3.org/2000/svg">
<path d="M12 13.4139L9.44601 15.9679C9.94051 16.8066 10.1122 17.7968 9.92878 18.7529C9.74541 19.7091 9.2196 20.5656 8.44992 21.1618C7.68025 21.758 6.71954 22.053 5.7479 21.9916C4.77625 21.9301 3.86037 21.5164 3.17194 20.828C2.48351 20.1395 2.0698 19.2237 2.00835 18.252C1.9469 17.2804 2.24193 16.3197 2.83814 15.55C3.43435 14.7803 4.29081 14.2545 5.24697 14.0711C6.20314 13.8878 7.19335 14.0594 8.03201 14.5539L10.586 11.9999L4.56501 5.9799C4.37906 5.79416 4.23154 5.57358 4.13089 5.33078C4.03024 5.08799 3.97844 4.82773 3.97844 4.5649C3.97844 4.30207 4.03024 4.04182 4.13089 3.79902C4.23154 3.55623 4.37906 3.33565 4.56501 3.1499L12 10.5869L19.435 3.1519C19.81 3.52696 20.0206 4.03557 20.0206 4.5659C20.0206 5.09623 19.81 5.60485 19.435 5.9799L13.415 11.9999L15.968 14.5539C16.8067 14.0594 17.7969 13.8878 18.753 14.0711C19.7092 14.2545 20.5657 14.7803 21.1619 15.55C21.7581 16.3197 22.0531 17.2804 21.9917 18.252C21.9302 19.2237 21.5165 20.1395 20.8281 20.828C20.1396 21.5164 19.2238 21.9301 18.2521 21.9916C17.2805 22.053 16.3198 21.758 15.5501 21.1618C14.7804 20.5656 14.2546 19.7091 14.0712 18.7529C13.8879 17.7968 14.0595 16.8066 14.554 15.9679L12 13.4139ZM6.00001 19.9999C6.53044 19.9999 7.03915 19.7892 7.41423 19.4141C7.7893 19.039 8.00001 18.5303 8.00001 17.9999C8.00001 17.4695 7.7893 16.9608 7.41423 16.5857C7.03915 16.2106 6.53044 15.9999 6.00001 15.9999C5.46958 15.9999 4.96087 16.2106 4.5858 16.5857C4.21073 16.9608 4.00001 17.4695 4.00001 17.9999C4.00001 18.5303 4.21073 19.039 4.5858 19.4141C4.96087 19.7892 5.46958 19.9999 6.00001 19.9999ZM18 19.9999C18.5304 19.9999 19.0392 19.7892 19.4142 19.4141C19.7893 19.039 20 18.5303 20 17.9999C20 17.4695 19.7893 16.9608 19.4142 16.5857C19.0392 16.2106 18.5304 15.9999 18 15.9999C17.4696 15.9999 16.9609 16.2106 16.5858 16.5857C16.2107 16.9608 16 17.4695 16 17.9999C16 18.5303 16.2107 19.039 16.5858 19.4141C16.9609 19.7892 17.4696 19.9999 18 19.9999Z" fill="#232634"/>
</svg>
