<svg width="24" height="24" viewBox="0 0 24 24" fill="none" xmlns="http://www.w3.org/2000/svg">
<path fill-rule="evenodd" clip-rule="evenodd" d="M4 4V20H12V4H4ZM3.8 2C2.80589 2 2 2.80589 2 3.8V20.2C2 21.1941 2.80589 22 3.8 22H12.2C12.4874 22 12.759 21.9327 13 21.8129V22H19.6C20.9255 22 22 20.9255 22 19.6L22 12.4C22 11.0745 20.9255 10 19.6 10H14V3.8C14 2.80589 13.1941 2 12.2 2H3.8ZM19.6 20H14V12H19.6C19.8209 12 20 12.1791 20 12.4L20 19.6C20 19.8209 19.8209 20 19.6 20ZM15.5 2C14.9477 2 14.5 2.44772 14.5 3C14.5 3.55228 14.9477 4 15.5 4C17.9853 4 20 6.01472 20 8.5C20 9.05228 20.4477 9.5 21 9.5C21.5523 9.5 22 9.05228 22 8.5C22 4.91015 19.0899 2 15.5 2Z" fill="#232634"/>
</svg>
