<svg width="24" height="24" viewBox="0 0 24 24" fill="none" xmlns="http://www.w3.org/2000/svg">
<path d="M9 2.99974V4.99974H4V18.9997H20V9.99974H22V19.9997C22 20.265 21.8946 20.5193 21.7071 20.7069C21.5196 20.8944 21.2652 20.9997 21 20.9997H3C2.73478 20.9997 2.48043 20.8944 2.29289 20.7069C2.10536 20.5193 2 20.265 2 19.9997V3.99974C2 3.73453 2.10536 3.48017 2.29289 3.29264C2.48043 3.1051 2.73478 2.99974 3 2.99974H9ZM18.95 4.99974L16 2.04974L17.414 0.635742L22.754 5.97574C22.8378 6.05965 22.8949 6.16651 22.918 6.28283C22.9411 6.39915 22.9292 6.51971 22.8838 6.62928C22.8385 6.73885 22.7616 6.83252 22.6631 6.89846C22.5645 6.96439 22.4486 6.99964 22.33 6.99974H14C13.4696 6.99974 12.9609 7.21046 12.5858 7.58553C12.2107 7.9606 12 8.46931 12 8.99974V14.9997H10V8.99974C10 7.93888 10.4214 6.92146 11.1716 6.17131C11.9217 5.42117 12.9391 4.99974 14 4.99974H18.95Z" fill="#232634"/>
</svg>
