<svg width="24" height="24" viewBox="0 0 24 24" fill="none" xmlns="http://www.w3.org/2000/svg">
<path d="M13.12 17.0227L8.92102 14.7327C8.37282 15.3188 7.66101 15.7264 6.8781 15.9026C6.09518 16.0788 5.27737 16.0154 4.53094 15.7208C3.78452 15.4261 3.14398 14.9137 2.69259 14.2502C2.2412 13.5867 1.99982 12.8027 1.99982 12.0002C1.99982 11.1977 2.2412 10.4138 2.69259 9.75027C3.14398 9.08676 3.78452 8.57437 4.53094 8.27968C5.27737 7.98498 6.09518 7.92162 6.8781 8.09783C7.66101 8.27403 8.37282 8.68165 8.92102 9.26771L13.121 6.97772C12.8826 6.03379 12.9966 5.0353 13.4417 4.16942C13.8867 3.30353 14.6323 2.6297 15.5387 2.27422C16.445 1.91874 17.4499 1.90602 18.365 2.23845C19.2801 2.57088 20.0425 3.22563 20.5093 4.07998C20.9762 4.93432 21.1154 5.9296 20.9009 6.87926C20.6864 7.82892 20.133 8.66775 19.3443 9.23852C18.5555 9.8093 17.5857 10.0728 16.6166 9.97971C15.6475 9.88659 14.7456 9.44323 14.08 8.73272L9.88002 11.0227C10.0412 11.6641 10.0412 12.3354 9.88002 12.9767L14.079 15.2667C14.7446 14.5562 15.6465 14.1128 16.6156 14.0197C17.5847 13.9266 18.5545 14.1901 19.3433 14.7609C20.132 15.3317 20.6854 16.1705 20.8999 17.1202C21.1144 18.0698 20.9752 19.0651 20.5083 19.9195C20.0415 20.7738 19.2791 21.4286 18.364 21.761C17.4489 22.0934 16.444 22.0807 15.5377 21.7252C14.6313 21.3697 13.8857 20.6959 13.4407 19.83C12.9956 18.9641 12.8816 17.9656 13.12 17.0217V17.0227ZM6.00002 13.9997C6.53046 13.9997 7.03916 13.789 7.41424 13.4139C7.78931 13.0389 8.00002 12.5301 8.00002 11.9997C8.00002 11.4693 7.78931 10.9606 7.41424 10.5855C7.03916 10.2104 6.53046 9.99971 6.00002 9.99971C5.46959 9.99971 4.96088 10.2104 4.58581 10.5855C4.21074 10.9606 4.00002 11.4693 4.00002 11.9997C4.00002 12.5301 4.21074 13.0389 4.58581 13.4139C4.96088 13.789 5.46959 13.9997 6.00002 13.9997ZM17 7.99972C17.5305 7.99972 18.0392 7.789 18.4142 7.41393C18.7893 7.03886 19 6.53015 19 5.99972C19 5.46928 18.7893 4.96057 18.4142 4.5855C18.0392 4.21043 17.5305 3.99972 17 3.99972C16.4696 3.99972 15.9609 4.21043 15.5858 4.5855C15.2107 4.96057 15 5.46928 15 5.99972C15 6.53015 15.2107 7.03886 15.5858 7.41393C15.9609 7.789 16.4696 7.99972 17 7.99972ZM17 19.9997C17.5305 19.9997 18.0392 19.789 18.4142 19.4139C18.7893 19.0389 19 18.5301 19 17.9997C19 17.4693 18.7893 16.9606 18.4142 16.5855C18.0392 16.2104 17.5305 15.9997 17 15.9997C16.4696 15.9997 15.9609 16.2104 15.5858 16.5855C15.2107 16.9606 15 17.4693 15 17.9997C15 18.5301 15.2107 19.0389 15.5858 19.4139C15.9609 19.789 16.4696 19.9997 17 19.9997Z" fill="#232634"/>
</svg>
