<svg width="24" height="24" viewBox="0 0 24 24" fill="none" xmlns="http://www.w3.org/2000/svg">
<path d="M4.00008 6.41384L0.75708 3.17184L2.17208 1.75684L5.41408 4.99984H20.6561C20.8119 4.99983 20.9657 5.03625 21.1049 5.1062C21.2442 5.17616 21.3652 5.2777 21.4583 5.40273C21.5514 5.52776 21.6139 5.67282 21.641 5.82632C21.668 5.97983 21.6588 6.13753 21.6141 6.28684L19.2141 14.2868C19.1523 14.4929 19.0258 14.6736 18.8532 14.802C18.6806 14.9305 18.4712 14.9999 18.2561 14.9998H6.00008V16.9998H17.0001V18.9998H5.00008C4.73486 18.9998 4.48051 18.8945 4.29297 18.7069C4.10544 18.5194 4.00008 18.2651 4.00008 17.9998V6.41384ZM5.50008 22.9998C5.10226 22.9998 4.72072 22.8418 4.43942 22.5605C4.15812 22.2792 4.00008 21.8977 4.00008 21.4998C4.00008 21.102 4.15812 20.7205 4.43942 20.4392C4.72072 20.1579 5.10226 19.9998 5.50008 19.9998C5.8979 19.9998 6.27944 20.1579 6.56074 20.4392C6.84204 20.7205 7.00008 21.102 7.00008 21.4998C7.00008 21.8977 6.84204 22.2792 6.56074 22.5605C6.27944 22.8418 5.8979 22.9998 5.50008 22.9998ZM17.5001 22.9998C17.1023 22.9998 16.7207 22.8418 16.4394 22.5605C16.1581 22.2792 16.0001 21.8977 16.0001 21.4998C16.0001 21.102 16.1581 20.7205 16.4394 20.4392C16.7207 20.1579 17.1023 19.9998 17.5001 19.9998C17.8979 19.9998 18.2794 20.1579 18.5607 20.4392C18.842 20.7205 19.0001 21.102 19.0001 21.4998C19.0001 21.8977 18.842 22.2792 18.5607 22.5605C18.2794 22.8418 17.8979 22.9998 17.5001 22.9998Z" fill="#232634"/>
</svg>
