<svg width="24" height="24" viewBox="0 0 24 24" fill="none" xmlns="http://www.w3.org/2000/svg">
<path d="M7 12.333L17.223 5.518C17.2983 5.4679 17.3858 5.43915 17.4761 5.43483C17.5664 5.43051 17.6563 5.45077 17.736 5.49346C17.8157 5.53615 17.8824 5.59966 17.9289 5.67724C17.9754 5.75482 18 5.84356 18 5.934V20.066C18 20.1564 17.9754 20.2452 17.9289 20.3228C17.8824 20.4003 17.8157 20.4639 17.736 20.5065C17.6563 20.5492 17.5664 20.5695 17.4761 20.5652C17.3858 20.5608 17.2983 20.5321 17.223 20.482L7 13.667V20C7 20.2652 6.89464 20.5196 6.70711 20.7071C6.51957 20.8946 6.26522 21 6 21C5.73478 21 5.48043 20.8946 5.29289 20.7071C5.10536 20.5196 5 20.2652 5 20V6C5 5.73478 5.10536 5.48043 5.29289 5.29289C5.48043 5.10536 5.73478 5 6 5C6.26522 5 6.51957 5.10536 6.70711 5.29289C6.89464 5.48043 7 5.73478 7 6V12.333Z" fill="#232634"/>
</svg>
