<svg width="24" height="24" viewBox="0 0 24 24" fill="none" xmlns="http://www.w3.org/2000/svg">
<path d="M20.083 15.2001L21.285 15.9211C21.3591 15.9655 21.4205 16.0283 21.4631 16.1035C21.5058 16.1787 21.5282 16.2636 21.5282 16.3501C21.5282 16.4365 21.5058 16.5214 21.4631 16.5966C21.4205 16.6718 21.3591 16.7347 21.285 16.7791L12.515 22.0411C12.3594 22.1345 12.1814 22.1839 12 22.1839C11.8185 22.1839 11.6405 22.1345 11.485 22.0411L2.71498 16.7791C2.64082 16.7347 2.57944 16.6718 2.53682 16.5966C2.4942 16.5214 2.4718 16.4365 2.4718 16.3501C2.4718 16.2636 2.4942 16.1787 2.53682 16.1035C2.57944 16.0283 2.64082 15.9655 2.71498 15.9211L3.91698 15.2001L12 20.0501L20.083 15.2001ZM20.083 10.5001L21.285 11.2211C21.3591 11.2655 21.4205 11.3283 21.4631 11.4035C21.5058 11.4787 21.5282 11.5636 21.5282 11.6501C21.5282 11.7365 21.5058 11.8214 21.4631 11.8966C21.4205 11.9718 21.3591 12.0347 21.285 12.0791L12 17.6501L2.71498 12.0791C2.64082 12.0347 2.57944 11.9718 2.53682 11.8966C2.4942 11.8214 2.4718 11.7365 2.4718 11.6501C2.4718 11.5636 2.4942 11.4787 2.53682 11.4035C2.57944 11.3283 2.64082 11.2655 2.71498 11.2211L3.91698 10.5001L12 15.3501L20.083 10.5001ZM12.514 1.30907L21.285 6.57107C21.3591 6.61546 21.4205 6.67832 21.4631 6.75351C21.5058 6.82869 21.5282 6.91364 21.5282 7.00007C21.5282 7.0865 21.5058 7.17145 21.4631 7.24663C21.4205 7.32182 21.3591 7.38468 21.285 7.42907L12 13.0001L2.71498 7.42907C2.64082 7.38468 2.57944 7.32182 2.53682 7.24663C2.4942 7.17145 2.4718 7.0865 2.4718 7.00007C2.4718 6.91364 2.4942 6.82869 2.53682 6.75351C2.57944 6.67832 2.64082 6.61546 2.71498 6.57107L11.485 1.30907C11.6405 1.21563 11.8185 1.16626 12 1.16626C12.1814 1.16626 12.3594 1.21563 12.515 1.30907H12.514ZM12 3.33207L5.88698 7.00007L12 10.6681L18.113 7.00007L12 3.33207Z" fill="#232634"/>
</svg>
