<svg width="24" height="24" viewBox="0 0 24 24" fill="none" xmlns="http://www.w3.org/2000/svg">
<path d="M15.414 4.9998H21.008C21.556 4.9998 22 5.4448 22 5.9998V19.9998C22 20.5518 21.545 20.9998 21.008 20.9998H2.99202C2.86115 20.9995 2.73161 20.9734 2.61085 20.923C2.4901 20.8726 2.38049 20.7988 2.28832 20.7058C2.19615 20.6129 2.12324 20.5027 2.07376 20.3816C2.02429 20.2604 1.99923 20.1307 2.00002 19.9998V5.9998C2.00002 5.4478 2.45502 4.9998 2.99202 4.9998H8.58602L6.05002 2.4638L7.46402 1.0498L11.414 4.9998H12.586L16.536 1.0498L17.95 2.4638L15.414 4.9998ZM4.00002 6.9998V18.9998H20V6.9998H4.00002Z" fill="#232634"/>
</svg>
