<svg width="24" height="24" viewBox="0 0 24 24" fill="none" xmlns="http://www.w3.org/2000/svg">
<path d="M20.5376 16.8379V20.0395C20.5376 20.3063 20.4418 20.5331 20.2502 20.7199C20.0587 20.9066 19.8261 21 19.5525 21H4.44757C4.17393 21 3.94133 20.9066 3.74978 20.7199C3.55824 20.5331 3.46246 20.3063 3.46246 20.0395V16.8379C3.46246 16.5711 3.55824 16.3444 3.74978 16.1576C3.94133 15.9708 4.17393 15.8775 4.44757 15.8775H8.09627C8.53784 15.8775 8.91353 16.1718 9.21126 16.4979C9.3112 16.6074 9.425 16.7074 9.55265 16.7979C9.89128 17.038 10.2692 17.1581 10.6865 17.1581H13.3135C13.7308 17.1581 14.1087 17.038 14.4474 16.7979C14.575 16.7074 14.6888 16.6074 14.7888 16.4979C15.0865 16.1718 15.4622 15.8775 15.9038 15.8775H19.5525C19.8261 15.8775 20.0587 15.9708 20.2502 16.1576C20.4418 16.3444 20.5376 16.5711 20.5376 16.8379ZM17.0688 8.36265C16.9525 8.62944 16.7507 8.76284 16.4634 8.76284H13.8365V13.2451C13.8365 13.4185 13.7715 13.5685 13.6415 13.6953C13.5115 13.822 13.3576 13.8854 13.1797 13.8854H10.5528C10.3749 13.8854 10.221 13.822 10.091 13.6953C9.96105 13.5685 9.89606 13.4185 9.89606 13.2451V8.76284H7.26912C6.9818 8.76284 6.77999 8.62944 6.6637 8.36265C6.5474 8.10252 6.59529 7.8724 6.80736 7.67231L11.4045 3.19009C11.5276 3.06336 11.6816 3 11.8663 3C12.051 3 12.2049 3.06336 12.328 3.19009L16.9252 7.67231C17.1372 7.8724 17.1851 8.10252 17.0688 8.36265Z" stroke="#232634" stroke-width="2" stroke-linejoin="round"/>
</svg>
