<svg width="24" height="24" viewBox="0 0 24 24" fill="none" xmlns="http://www.w3.org/2000/svg">
<path d="M4.87295 3H19.127C19.2847 2.99998 19.4403 3.0373 19.5809 3.1089C19.7215 3.18051 19.8432 3.28437 19.936 3.412L23.759 8.668C23.8269 8.76152 23.8604 8.8757 23.8536 8.99112C23.8469 9.10653 23.8003 9.21603 23.722 9.301L12.367 21.602C12.3201 21.6526 12.2634 21.693 12.2002 21.7206C12.1371 21.7482 12.0689 21.7624 12 21.7624C11.931 21.7624 11.8628 21.7482 11.7997 21.7206C11.7365 21.693 11.6798 21.6526 11.633 21.602L0.277952 9.302C0.199303 9.21697 0.152618 9.10726 0.145869 8.99163C0.139121 8.876 0.172729 8.76161 0.240952 8.668L4.06395 3.412C4.15673 3.28437 4.2784 3.18051 4.419 3.1089C4.55961 3.0373 4.71516 2.99998 4.87295 3Z" fill="#232634"/>
</svg>
