<svg width="24" height="24" viewBox="0 0 24 24" fill="none" xmlns="http://www.w3.org/2000/svg">
<g clip-path="url(#clip0_18_15544)">
<path d="M19.39 3.16089L20.803 4.57489L18.328 7.04989L20.803 9.52489L18.328 11.9999L20.803 14.4759L18.328 16.9509L20.803 19.4259L19.389 20.8399L15.5 16.9499L17.975 14.4759L15.5 11.9999L17.975 9.52489L15.5 7.04989L19.39 3.16089ZM12.887 3.73889C12.9599 3.82806 12.9999 3.93968 13 4.05489V19.9449C13.0001 20.0396 12.9732 20.1324 12.9226 20.2125C12.872 20.2925 12.7996 20.3565 12.714 20.3971C12.6284 20.4376 12.5331 20.453 12.4391 20.4415C12.3451 20.43 12.2563 20.3919 12.183 20.3319L6.89 15.9989L3 15.9999C2.73478 15.9999 2.48043 15.8945 2.29289 15.707C2.10536 15.5195 2 15.2651 2 14.9999V8.99989C2 8.73467 2.10536 8.48032 2.29289 8.29278C2.48043 8.10525 2.73478 7.99989 3 7.99989H6.889L12.183 3.66789C12.2338 3.62623 12.2923 3.59499 12.3552 3.57596C12.4181 3.55693 12.4841 3.55048 12.5495 3.55698C12.6149 3.56348 12.6783 3.5828 12.7363 3.61385C12.7942 3.64489 12.8454 3.68704 12.887 3.73789V3.73889Z" fill="#232634"/>
</g>
<defs>
<clipPath id="clip0_18_15544">
<rect width="24" height="24" fill="white"/>
</clipPath>
</defs>
</svg>
