<svg width="24" height="24" viewBox="0 0 24 24" fill="none" xmlns="http://www.w3.org/2000/svg">
<path d="M19.39 3.16111L20.803 4.57511L18.328 7.05011L20.803 9.5251L18.328 12.0001L20.803 14.4761L18.328 16.9511L20.803 19.4261L19.389 20.8401L15.5 16.9501L17.975 14.4761L15.5 12.0001L17.975 9.5251L15.5 7.05011L19.39 3.16111ZM13 19.9451C13 20.0398 12.9732 20.1326 12.9226 20.2127C12.872 20.2927 12.7996 20.3568 12.714 20.3973C12.6284 20.4379 12.5331 20.4533 12.4391 20.4417C12.345 20.4302 12.2562 20.3922 12.183 20.3321L6.88998 15.9991L2.99998 16.0001C2.73477 16.0001 2.48041 15.8947 2.29288 15.7072C2.10534 15.5197 1.99998 15.2653 1.99998 15.0001V9.00011C1.99998 8.73489 2.10534 8.48054 2.29288 8.293C2.48041 8.10546 2.73477 8.00011 2.99998 8.00011L5.58398 7.99811L1.80798 4.22211L3.22198 2.80811L13 12.5861V19.9451ZM12.887 3.73911C12.9599 3.82827 12.9998 3.9399 13 4.05511V9.75711L9.28198 6.04011L12.183 3.66811C12.2338 3.62644 12.2923 3.59521 12.3552 3.57617C12.4181 3.55714 12.4841 3.55069 12.5495 3.5572C12.6149 3.5637 12.6783 3.58302 12.7362 3.61406C12.7942 3.6451 12.8454 3.68725 12.887 3.73811V3.73911Z" fill="#232634"/>
</svg>
