<svg width="24" height="24" viewBox="0 0 24 24" fill="none" xmlns="http://www.w3.org/2000/svg">
<path d="M12 18.0001C12.714 18.0001 13.37 18.2501 13.886 18.6661L12 21.0001L10.114 18.6661C10.6474 18.2339 11.3134 17.9987 12 18.0001ZM2.80796 1.39307L20.485 19.0711L19.071 20.4851L13.891 15.3051C13.2811 15.1027 12.6426 14.9997 12 15.0001C10.572 15.0001 9.25996 15.4991 8.22996 16.3321L6.97396 14.7761C8.28802 13.7115 9.90686 13.093 11.596 13.0101L8.99996 10.4141C7.57213 10.8188 6.24128 11.5091 5.08796 12.4431L3.82996 10.8871C4.90777 10.0143 6.11844 9.31982 7.41596 8.83007L5.13196 6.54507C3.99506 7.08648 2.926 7.76013 1.94696 8.55207L0.688965 6.99707C1.60396 6.25707 2.59196 5.60607 3.64096 5.05507L1.39296 2.80807L2.80796 1.39307ZM14.5 10.2851L12.216 8.00207L12 8.00007C15.095 8.00007 17.937 9.08107 20.17 10.8871L18.912 12.4431C17.6235 11.3992 16.1149 10.6614 14.5 10.2851ZM12 3.00007C16.285 3.00007 20.22 4.49707 23.31 6.99707L22.053 8.55207C19.2093 6.24872 15.6594 4.99445 12 5.00007C11.122 5.00007 10.26 5.07007 9.41996 5.20707L7.72496 3.51007C9.09396 3.17707 10.527 3.00007 12 3.00007Z" fill="#232634"/>
</svg>
