<svg width="24" height="24" viewBox="0 0 24 24" fill="none" xmlns="http://www.w3.org/2000/svg">
<path d="M12 18.0001C12.714 18.0001 13.37 18.2501 13.886 18.6661L12 21.0001L10.114 18.6661C10.6474 18.2339 11.3134 17.9987 12 18.0001ZM2.80796 1.39307L20.485 19.0711L19.071 20.4851L15.389 16.8051L15.142 17.1111C14.2533 16.3909 13.1438 15.9986 12 16.0001C10.8566 15.9985 9.74749 16.3905 8.85896 17.1101L6.97396 14.7761C8.28802 13.7115 9.90686 13.093 11.596 13.0101L9.82296 11.2381C8.3195 11.5725 6.91403 12.2509 5.71696 13.2201L3.82996 10.8871C4.90777 10.0143 6.11844 9.31982 7.41596 8.83007L5.88496 7.30007C4.69829 7.83078 3.58563 8.5135 2.57496 9.33107L0.688965 6.99707C1.60396 6.25707 2.59196 5.60607 3.64096 5.05507L1.39296 2.80807L2.80796 1.39307ZM16.084 11.8701L12.216 8.00307L12 8.00007C15.095 8.00007 17.937 9.08107 20.17 10.8871L18.284 13.2211C17.6121 12.6772 16.8726 12.2228 16.084 11.8691V11.8701ZM12 3.00007C16.285 3.00007 20.22 4.49707 23.31 6.99707L21.426 9.33007C18.7597 7.17038 15.4312 5.99448 12 6.00007C11.428 6.00007 10.864 6.03207 10.31 6.09407L7.72296 3.51107C9.09396 3.17707 10.527 3.00007 12 3.00007Z" fill="#232634"/>
</svg>
